solid fanホルダ2ー
facet normal 0.0 -1.3621603258515085e-17 1.0
outer loop
vertex 29.538244 0.0 0.0
vertex 0.0 51.755406999999984 7.049916206369744e-16
vertex 0.0 0.0 0.0
endloop
endfacet
facet normal 0.0 -1.3621603258515085e-17 1.0
outer loop
vertex 0.0 51.755406999999984 7.049916206369744e-16
vertex 29.538244 0.0 0.0
vertex 29.538244 51.755406999999984 7.049916206369744e-16
endloop
endfacet
facet normal 0.0 1.0 0.0
outer loop
vertex 8.499999999999998 42.0 12.0
vertex 24.503604316987673 42.0 1.9999999999999998
vertex 8.499999999999998 42.0 1.9999999999999998
endloop
endfacet
facet normal 0.0 1.0 0.0
outer loop
vertex 24.503604316987673 42.0 1.9999999999999998
vertex 8.499999999999998 42.0 12.0
vertex 24.503604316987673 42.0 12.0
endloop
endfacet
facet normal 0.0 0.0 -1.0
outer loop
vertex 8.499999999999998 41.755407000000005 1.9999999999999998
vertex 1.4099832412739487e-15 10.000000000000004 1.9999999999999998
vertex 1.4099832412739487e-15 41.75540699999999 1.9999999999999998
endloop
endfacet
facet normal 0.0 0.0 -1.0
outer loop
vertex 1.4099832412739487e-15 10.000000000000004 1.9999999999999998
vertex 8.499999999999998 41.755407000000005 1.9999999999999998
vertex 8.5 10.000000000000004 1.9999999999999998
endloop
endfacet
facet normal 0.0 0.0 -1.0
outer loop
vertex 8.5 10.000000000000004 1.9999999999999998
vertex 8.499999999999998 41.755407000000005 1.9999999999999998
vertex 24.50369468643151 41.755407000000005 1.9999999999999998
endloop
endfacet
facet normal 0.0 0.0 -1.0
outer loop
vertex 8.5 10.000000000000004 1.9999999999999998
vertex 24.50369468643151 41.755407000000005 1.9999999999999998
vertex 24.53824400000001 10.0 1.9999999999999998
endloop
endfacet
facet normal 0.0 0.0 -1.0
outer loop
vertex 24.53824400000001 10.0 1.9999999999999998
vertex 24.50369468643151 41.755407000000005 1.9999999999999998
vertex 24.53824400000001 41.755407000000005 1.9999999999999998
endloop
endfacet
facet normal 0.0 0.0 -1.0
outer loop
vertex 24.53824400000001 10.0 1.9999999999999998
vertex 24.53824400000001 41.755407000000005 1.9999999999999998
vertex 29.538244 41.755407000000005 1.9999999999999998
endloop
endfacet
facet normal 0.0 0.0 -1.0
outer loop
vertex 24.53824400000001 10.0 1.9999999999999998
vertex 29.538244 41.755407000000005 1.9999999999999998
vertex 29.538244 9.999999999999998 1.9999999999999998
endloop
endfacet
facet normal 0.0 0.0 -1.0
outer loop
vertex 8.499999999999998 42.0 1.9999999999999998
vertex 1.4099832412739487e-15 41.75540699999999 1.9999999999999998
vertex 1.4099832412739487e-15 42.0 1.9999999999999998
endloop
endfacet
facet normal 0.0 0.0 -1.0
outer loop
vertex 1.4099832412739487e-15 41.75540699999999 1.9999999999999998
vertex 8.499999999999998 42.0 1.9999999999999998
vertex 8.499999999999998 41.755407000000005 1.9999999999999998
endloop
endfacet
facet normal 0.0 0.0 -1.0
outer loop
vertex 29.538244 42.0 1.9999999999999998
vertex 24.53824400000001 41.755407000000005 1.9999999999999998
vertex 24.53824400000001 42.0 1.9999999999999998
endloop
endfacet
facet normal 0.0 0.0 -1.0
outer loop
vertex 24.53824400000001 41.755407000000005 1.9999999999999998
vertex 29.538244 42.0 1.9999999999999998
vertex 29.538244 41.755407000000005 1.9999999999999998
endloop
endfacet
facet normal 0.0 0.0 -1.0
outer loop
vertex 24.503604316987673 42.0 1.9999999999999998
vertex 8.499999999999998 41.755407000000005 1.9999999999999998
vertex 8.499999999999998 42.0 1.9999999999999998
endloop
endfacet
facet normal 0.0 0.0 -1.0
outer loop
vertex 8.499999999999998 41.755407000000005 1.9999999999999998
vertex 24.503604316987673 42.0 1.9999999999999998
vertex 24.50369468643151 41.755407000000005 1.9999999999999998
endloop
endfacet
facet normal 0.0 0.0 -1.0
outer loop
vertex 8.5 51.755406999999984 12.0
vertex 24.503604316987673 42.0 12.0
vertex 8.499999999999998 42.0 12.0
endloop
endfacet
facet normal 0.0 0.0 -1.0
outer loop
vertex 24.503604316987673 42.0 12.0
vertex 8.5 51.755406999999984 12.0
vertex 24.5 51.755406999999984 12.0
endloop
endfacet
facet normal 0.0 1.0 0.0
outer loop
vertex 0.0 0.0 0.0
vertex 8.500000000000002 0.0 12.0
vertex 29.538244 0.0 0.0
endloop
endfacet
facet normal 0.0 1.0 0.0
outer loop
vertex 8.500000000000002 0.0 12.0
vertex 0.0 0.0 0.0
vertex 0.0 0.0 22.0
endloop
endfacet
facet normal 0.0 1.0 0.0
outer loop
vertex 8.500000000000002 0.0 12.0
vertex 0.0 0.0 22.0
vertex 8.500000000000002 0.0 22.0
endloop
endfacet
facet normal 0.0 1.0 0.0
outer loop
vertex 29.538244 0.0 0.0
vertex 24.53824400000001 0.0 12.0
vertex 29.538244 0.0 22.0
endloop
endfacet
facet normal 0.0 1.0 0.0
outer loop
vertex 24.53824400000001 0.0 12.0
vertex 29.538244 0.0 0.0
vertex 8.500000000000002 0.0 12.0
endloop
endfacet
facet normal 0.0 1.0 0.0
outer loop
vertex 29.538244 0.0 22.0
vertex 24.53824400000001 0.0 12.0
vertex 24.53824400000001 0.0 22.0
endloop
endfacet
facet normal 1.0 -4.375447420884338e-33 -3.182806413710944e-18
outer loop
vertex 0.0 0.0 0.0
vertex 1.4099832412739487e-15 10.000000000000004 1.9999999999999998
vertex 0.0 0.0 22.0
endloop
endfacet
facet normal 1.0 -4.375447420884338e-33 -3.182806413710944e-18
outer loop
vertex 1.4099832412739487e-15 10.000000000000004 1.9999999999999998
vertex 0.0 0.0 0.0
vertex 0.0 51.755406999999984 7.049916206369744e-16
endloop
endfacet
facet normal 1.0 -4.375447420884338e-33 -3.182806413710944e-18
outer loop
vertex 1.4099832412739487e-15 10.000000000000004 1.9999999999999998
vertex 0.0 51.755406999999984 7.049916206369744e-16
vertex 1.4099832412739487e-15 41.75540699999999 1.9999999999999998
endloop
endfacet
facet normal 1.0 -4.375447420884338e-33 -3.182806413710944e-18
outer loop
vertex 1.4099832412739487e-15 41.75540699999999 1.9999999999999998
vertex 0.0 51.755406999999984 7.049916206369744e-16
vertex 1.4099832412739487e-15 41.75540699999999 22.0
endloop
endfacet
facet normal 1.0 -4.375447420884338e-33 -3.182806413710944e-18
outer loop
vertex 1.4099832412739487e-15 41.75540699999999 22.0
vertex 0.0 51.755406999999984 7.049916206369744e-16
vertex 0.0 51.755406999999984 22.0
endloop
endfacet
facet normal 1.0 -4.375447420884338e-33 -3.182806413710944e-18
outer loop
vertex 1.4099832412739487e-15 10.000000000000004 22.0
vertex 0.0 0.0 22.0
vertex 1.4099832412739487e-15 10.000000000000004 1.9999999999999998
endloop
endfacet
facet normal 0.0 0.0 -1.0
outer loop
vertex 1.4099832412739487e-15 10.000000000000004 22.0
vertex 8.500000000000002 0.0 22.0
vertex 0.0 0.0 22.0
endloop
endfacet
facet normal 0.0 0.0 -1.0
outer loop
vertex 8.500000000000002 0.0 22.0
vertex 1.4099832412739487e-15 10.000000000000004 22.0
vertex 8.5 10.000000000000004 22.0
endloop
endfacet
facet normal 0.0 0.0 -1.0
outer loop
vertex 29.538244 9.999999999999998 22.0
vertex 24.53824400000001 0.0 22.0
vertex 24.53824400000001 10.0 22.0
endloop
endfacet
facet normal 0.0 0.0 -1.0
outer loop
vertex 24.53824400000001 0.0 22.0
vertex 29.538244 9.999999999999998 22.0
vertex 29.538244 0.0 22.0
endloop
endfacet
facet normal 0.0 0.0 -1.0
outer loop
vertex 29.538244 51.755406999999984 22.0
vertex 24.53824400000001 41.755407000000005 22.0
vertex 24.53824400000001 51.755406999999984 22.0
endloop
endfacet
facet normal 0.0 0.0 -1.0
outer loop
vertex 24.53824400000001 41.755407000000005 22.0
vertex 29.538244 51.755406999999984 22.0
vertex 29.538244 41.755407000000005 22.0
endloop
endfacet
facet normal 0.0 1.0 0.0
outer loop
vertex 24.53824400000001 41.755407000000005 22.0
vertex 29.538244 41.755407000000005 1.9999999999999998
vertex 24.53824400000001 41.755407000000005 1.9999999999999998
endloop
endfacet
facet normal 0.0 1.0 0.0
outer loop
vertex 29.538244 41.755407000000005 1.9999999999999998
vertex 24.53824400000001 41.755407000000005 22.0
vertex 29.538244 41.755407000000005 22.0
endloop
endfacet
facet normal 1.0 0.0 0.0
outer loop
vertex 24.53824400000001 42.0 1.9999999999999998
vertex 24.53824400000001 41.755407000000005 22.0
vertex 24.53824400000001 41.755407000000005 1.9999999999999998
endloop
endfacet
facet normal 1.0 0.0 0.0
outer loop
vertex 24.53824400000001 41.755407000000005 22.0
vertex 24.53824400000001 42.0 1.9999999999999998
vertex 24.53824400000001 51.755406999999984 22.0
endloop
endfacet
facet normal 1.0 0.0 0.0
outer loop
vertex 24.53824400000001 51.755406999999984 22.0
vertex 24.53824400000001 42.0 1.9999999999999998
vertex 24.53824400000001 51.755406999999984 1.9999999999999998
endloop
endfacet
facet normal -1.0 0.0 0.0
outer loop
vertex 29.538244 51.755406999999984 22.0
vertex 29.538244 41.755407000000005 1.9999999999999998
vertex 29.538244 41.755407000000005 22.0
endloop
endfacet
facet normal -1.0 0.0 0.0
outer loop
vertex 29.538244 9.999999999999998 22.0
vertex 29.538244 0.0 0.0
vertex 29.538244 0.0 22.0
endloop
endfacet
facet normal -1.0 0.0 0.0
outer loop
vertex 29.538244 0.0 0.0
vertex 29.538244 9.999999999999998 22.0
vertex 29.538244 9.999999999999998 1.9999999999999998
endloop
endfacet
facet normal -1.0 0.0 0.0
outer loop
vertex 29.538244 0.0 0.0
vertex 29.538244 9.999999999999998 1.9999999999999998
vertex 29.538244 51.755406999999984 7.049916206369744e-16
endloop
endfacet
facet normal -1.0 0.0 0.0
outer loop
vertex 29.538244 51.755406999999984 7.049916206369744e-16
vertex 29.538244 9.999999999999998 1.9999999999999998
vertex 29.538244 41.755407000000005 1.9999999999999998
endloop
endfacet
facet normal -1.0 0.0 0.0
outer loop
vertex 29.538244 51.755406999999984 7.049916206369744e-16
vertex 29.538244 41.755407000000005 1.9999999999999998
vertex 29.538244 51.755406999999984 22.0
endloop
endfacet
facet normal 0.0 0.0 -1.0
outer loop
vertex 8.5 51.755406999999984 22.0
vertex 1.4099832412739487e-15 41.75540699999999 22.0
vertex 0.0 51.755406999999984 22.0
endloop
endfacet
facet normal 0.0 0.0 -1.0
outer loop
vertex 1.4099832412739487e-15 41.75540699999999 22.0
vertex 8.5 51.755406999999984 22.0
vertex 8.499999999999998 41.755407000000005 22.0
endloop
endfacet
facet normal 0.0 -1.0 0.0
outer loop
vertex 8.5 10.000000000000004 12.0
vertex 1.4099832412739487e-15 10.000000000000004 1.9999999999999998
vertex 8.5 10.000000000000004 1.9999999999999998
endloop
endfacet
facet normal 0.0 -1.0 0.0
outer loop
vertex 1.4099832412739487e-15 10.000000000000004 1.9999999999999998
vertex 8.5 10.000000000000004 12.0
vertex 1.4099832412739487e-15 10.000000000000004 22.0
endloop
endfacet
facet normal 0.0 -1.0 0.0
outer loop
vertex 1.4099832412739487e-15 10.000000000000004 22.0
vertex 8.5 10.000000000000004 12.0
vertex 8.5 10.000000000000004 22.0
endloop
endfacet
facet normal -0.999999931746468 -0.00036946861793299787 -0.0
outer loop
vertex 24.5 51.755406999999984 12.0
vertex 24.503604316987673 42.0 1.9999999999999998
vertex 24.503604316987673 42.0 12.0
endloop
endfacet
facet normal -0.999999931746468 -0.00036946861793299787 -0.0
outer loop
vertex 24.503604316987673 42.0 1.9999999999999998
vertex 24.5 51.755406999999984 12.0
vertex 24.5 51.755406999999984 1.9999999999999998
endloop
endfacet
facet normal -1.0 -1.409983241273948e-16 -0.0
outer loop
vertex 8.5 10.000000000000004 22.0
vertex 8.500000000000002 0.0 12.0
vertex 8.500000000000002 0.0 22.0
endloop
endfacet
facet normal -1.0 -1.409983241273948e-16 -0.0
outer loop
vertex 8.500000000000002 0.0 12.0
vertex 8.5 10.000000000000004 22.0
vertex 8.5 10.000000000000004 12.0
endloop
endfacet
facet normal 1.0 0.0 0.0
outer loop
vertex 24.53824400000001 10.0 12.0
vertex 24.53824400000001 0.0 22.0
vertex 24.53824400000001 0.0 12.0
endloop
endfacet
facet normal 1.0 0.0 0.0
outer loop
vertex 24.53824400000001 0.0 22.0
vertex 24.53824400000001 10.0 12.0
vertex 24.53824400000001 10.0 22.0
endloop
endfacet
facet normal 0.0 -1.0 0.0
outer loop
vertex 29.538244 51.755406999999984 7.049916206369744e-16
vertex 24.53824400000001 51.755406999999984 1.9999999999999998
vertex 0.0 51.755406999999984 7.049916206369744e-16
endloop
endfacet
facet normal 0.0 -1.0 0.0
outer loop
vertex 24.53824400000001 51.755406999999984 1.9999999999999998
vertex 29.538244 51.755406999999984 7.049916206369744e-16
vertex 29.538244 51.755406999999984 22.0
endloop
endfacet
facet normal 0.0 -1.0 0.0
outer loop
vertex 24.53824400000001 51.755406999999984 1.9999999999999998
vertex 29.538244 51.755406999999984 22.0
vertex 24.53824400000001 51.755406999999984 22.0
endloop
endfacet
facet normal 0.0 -1.0 0.0
outer loop
vertex 0.0 51.755406999999984 7.049916206369744e-16
vertex 8.5 51.755406999999984 12.0
vertex 0.0 51.755406999999984 22.0
endloop
endfacet
facet normal 0.0 -1.0 0.0
outer loop
vertex 8.5 51.755406999999984 12.0
vertex 0.0 51.755406999999984 7.049916206369744e-16
vertex 24.5 51.755406999999984 1.9999999999999998
endloop
endfacet
facet normal 0.0 -1.0 0.0
outer loop
vertex 24.5 51.755406999999984 1.9999999999999998
vertex 0.0 51.755406999999984 7.049916206369744e-16
vertex 24.53824400000001 51.755406999999984 1.9999999999999998
endloop
endfacet
facet normal 0.0 -1.0 0.0
outer loop
vertex 8.5 51.755406999999984 12.0
vertex 24.5 51.755406999999984 1.9999999999999998
vertex 24.5 51.755406999999984 12.0
endloop
endfacet
facet normal 0.0 -1.0 0.0
outer loop
vertex 0.0 51.755406999999984 22.0
vertex 8.5 51.755406999999984 12.0
vertex 8.5 51.755406999999984 22.0
endloop
endfacet
facet normal -2.8199664825479026e-16 -1.0 0.0
outer loop
vertex 29.538244 9.999999999999998 22.0
vertex 24.53824400000001 10.0 1.9999999999999998
vertex 29.538244 9.999999999999998 1.9999999999999998
endloop
endfacet
facet normal -2.8199664825479026e-16 -1.0 0.0
outer loop
vertex 24.53824400000001 10.0 1.9999999999999998
vertex 29.538244 9.999999999999998 22.0
vertex 24.53824400000001 10.0 12.0
endloop
endfacet
facet normal -2.8199664825479026e-16 -1.0 0.0
outer loop
vertex 24.53824400000001 10.0 12.0
vertex 29.538244 9.999999999999998 22.0
vertex 24.53824400000001 10.0 22.0
endloop
endfacet
facet normal -1.3270430506107758e-15 1.0 0.0
outer loop
vertex 1.4099832412739487e-15 41.75540699999999 22.0
vertex 8.499999999999998 41.755407000000005 1.9999999999999998
vertex 1.4099832412739487e-15 41.75540699999999 1.9999999999999998
endloop
endfacet
facet normal -1.3270430506107758e-15 1.0 0.0
outer loop
vertex 8.499999999999998 41.755407000000005 1.9999999999999998
vertex 1.4099832412739487e-15 41.75540699999999 22.0
vertex 8.499999999999998 41.755407000000005 22.0
endloop
endfacet
facet normal -1.0 1.4194842542892316e-16 4.99484745221608e-19
outer loop
vertex 8.499999999999998 41.755407000000005 22.0
vertex 8.499999999999998 42.0 12.0
vertex 8.499999999999998 41.755407000000005 1.9999999999999998
endloop
endfacet
facet normal -1.0 1.4194842542892316e-16 4.99484745221608e-19
outer loop
vertex 8.499999999999998 42.0 12.0
vertex 8.499999999999998 41.755407000000005 22.0
vertex 8.5 51.755406999999984 22.0
endloop
endfacet
facet normal -1.0 1.4194842542892316e-16 4.99484745221608e-19
outer loop
vertex 8.499999999999998 42.0 12.0
vertex 8.5 51.755406999999984 22.0
vertex 8.5 51.755406999999984 12.0
endloop
endfacet
facet normal -1.0 1.4194842542892316e-16 4.99484745221608e-19
outer loop
vertex 8.499999999999998 42.0 1.9999999999999998
vertex 8.499999999999998 41.755407000000005 1.9999999999999998
vertex 8.499999999999998 42.0 12.0
endloop
endfacet
facet normal 0.0 0.0 -1.0
outer loop
vertex 24.53824400000001 10.0 12.0
vertex 8.500000000000002 0.0 12.0
vertex 8.5 10.000000000000004 12.0
endloop
endfacet
facet normal 0.0 0.0 -1.0
outer loop
vertex 8.500000000000002 0.0 12.0
vertex 24.53824400000001 10.0 12.0
vertex 24.53824400000001 0.0 12.0
endloop
endfacet
facet normal -2.6374144973862756e-16 -1.0 -0.0
outer loop
vertex 24.53824400000001 10.0 12.0
vertex 8.5 10.000000000000004 1.9999999999999998
vertex 24.53824400000001 10.0 1.9999999999999998
endloop
endfacet
facet normal -2.6374144973862756e-16 -1.0 -0.0
outer loop
vertex 8.5 10.000000000000004 1.9999999999999998
vertex 24.53824400000001 10.0 12.0
vertex 8.5 10.000000000000004 12.0
endloop
endfacet
facet normal 0.0 0.0 -1.0
outer loop
vertex 24.53824400000001 51.755406999999984 1.9999999999999998
vertex 24.503604316987673 42.0 1.9999999999999998
vertex 24.5 51.755406999999984 1.9999999999999998
endloop
endfacet
facet normal 0.0 0.0 -1.0
outer loop
vertex 24.503604316987673 42.0 1.9999999999999998
vertex 24.53824400000001 51.755406999999984 1.9999999999999998
vertex 24.53824400000001 42.0 1.9999999999999998
endloop
endfacet
facet normal 0.0 0.0 -1.0
outer loop
vertex 24.53824400000001 42.0 1.9999999999999998
vertex 24.50369468643151 41.755407000000005 1.9999999999999998
vertex 24.503604316987673 42.0 1.9999999999999998
endloop
endfacet
facet normal 0.0 0.0 -1.0
outer loop
vertex 24.50369468643151 41.755407000000005 1.9999999999999998
vertex 24.53824400000001 42.0 1.9999999999999998
vertex 24.53824400000001 41.755407000000005 1.9999999999999998
endloop
endfacet
endsolid fanホルダ2ー
