solid フィラメントドラム3
facet normal 2.0902954530508792e-33 3.8062182958024933e-33 1.0
  outer loop
    vertex -24.999999999999996 3.061616997868383e-15 1.9999999999999998
    vertex -48.29629131445342 12.940952255126028 1.9999999999999998
    vertex -50.00000000000001 -1.6081226496766367e-14 1.9999999999999998
  endloop
endfacet
facet normal 2.0902954530508792e-33 3.8062182958024933e-33 1.0
  outer loop
    vertex -48.29629131445342 12.940952255126028 1.9999999999999998
    vertex -24.999999999999996 3.061616997868383e-15 1.9999999999999998
    vertex -43.30127018922194 25.0 1.9999999999999998
  endloop
endfacet
facet normal 2.0902954530508792e-33 3.8062182958024933e-33 1.0
  outer loop
    vertex -43.30127018922194 25.0 1.9999999999999998
    vertex -24.999999999999996 3.061616997868383e-15 1.9999999999999998
    vertex -35.35533905932738 35.35533905932738 1.9999999999999998
  endloop
endfacet
facet normal 2.0902954530508792e-33 3.8062182958024933e-33 1.0
  outer loop
    vertex -35.35533905932738 35.35533905932738 1.9999999999999998
    vertex -24.999999999999996 3.061616997868383e-15 1.9999999999999998
    vertex -24.99999999999999 43.30127018922194 1.9999999999999998
  endloop
endfacet
facet normal 2.0902954530508792e-33 3.8062182958024933e-33 1.0
  outer loop
    vertex -24.99999999999999 43.30127018922194 1.9999999999999998
    vertex -24.999999999999996 3.061616997868383e-15 1.9999999999999998
    vertex -24.148145657226703 6.470476127563026 1.9999999999999998
  endloop
endfacet
facet normal 2.0902954530508792e-33 3.8062182958024933e-33 1.0
  outer loop
    vertex -24.99999999999999 43.30127018922194 1.9999999999999998
    vertex -24.148145657226703 6.470476127563026 1.9999999999999998
    vertex -12.940952255126023 48.29629131445343 1.9999999999999998
  endloop
endfacet
facet normal 2.0902954530508792e-33 3.8062182958024933e-33 1.0
  outer loop
    vertex -12.940952255126023 48.29629131445343 1.9999999999999998
    vertex -24.148145657226703 6.470476127563026 1.9999999999999998
    vertex -21.65063509461096 12.500000000000009 1.9999999999999998
  endloop
endfacet
facet normal 2.0902954530508792e-33 3.8062182958024933e-33 1.0
  outer loop
    vertex -12.940952255126023 48.29629131445343 1.9999999999999998
    vertex -21.65063509461096 12.500000000000009 1.9999999999999998
    vertex -17.677669529663685 17.67766952966369 1.9999999999999998
  endloop
endfacet
facet normal 2.0902954530508792e-33 3.8062182958024933e-33 1.0
  outer loop
    vertex -12.940952255126023 48.29629131445343 1.9999999999999998
    vertex -17.677669529663685 17.67766952966369 1.9999999999999998
    vertex -12.499999999999993 21.65063509461097 1.9999999999999998
  endloop
endfacet
facet normal 2.0902954530508792e-33 3.8062182958024933e-33 1.0
  outer loop
    vertex -12.940952255126023 48.29629131445343 1.9999999999999998
    vertex -12.499999999999993 21.65063509461097 1.9999999999999998
    vertex 1.4163847244119949e-14 50.00000000000001 1.9999999999999998
  endloop
endfacet
facet normal 2.0902954530508792e-33 3.8062182958024933e-33 1.0
  outer loop
    vertex 1.4163847244119949e-14 50.00000000000001 1.9999999999999998
    vertex -12.499999999999993 21.65063509461097 1.9999999999999998
    vertex -6.470476127563014 24.14814565722671 1.9999999999999998
  endloop
endfacet
facet normal 2.0902954530508792e-33 3.8062182958024933e-33 1.0
  outer loop
    vertex 1.4163847244119949e-14 50.00000000000001 1.9999999999999998
    vertex -6.470476127563014 24.14814565722671 1.9999999999999998
    vertex 1.5308084989341911e-15 25.0 1.9999999999999998
  endloop
endfacet
facet normal 2.0902954530508792e-33 3.8062182958024933e-33 1.0
  outer loop
    vertex 1.4163847244119949e-14 50.00000000000001 1.9999999999999998
    vertex 1.5308084989341911e-15 25.0 1.9999999999999998
    vertex 6.470476127563023 24.148145657226706 1.9999999999999998
  endloop
endfacet
facet normal 2.0902954530508792e-33 3.8062182958024933e-33 1.0
  outer loop
    vertex 1.4163847244119949e-14 50.00000000000001 1.9999999999999998
    vertex 6.470476127563023 24.148145657226706 1.9999999999999998
    vertex 12.940952255126048 48.29629131445342 1.9999999999999998
  endloop
endfacet
facet normal 2.0902954530508792e-33 3.8062182958024933e-33 1.0
  outer loop
    vertex 12.940952255126048 48.29629131445342 1.9999999999999998
    vertex 6.470476127563023 24.148145657226706 1.9999999999999998
    vertex 12.500000000000002 21.650635094610966 1.9999999999999998
  endloop
endfacet
facet normal 2.0902954530508792e-33 3.8062182958024933e-33 1.0
  outer loop
    vertex 12.940952255126048 48.29629131445342 1.9999999999999998
    vertex 12.500000000000002 21.650635094610966 1.9999999999999998
    vertex 17.67766952966369 17.67766952966369 1.9999999999999998
  endloop
endfacet
facet normal 2.0902954530508792e-33 3.8062182958024933e-33 1.0
  outer loop
    vertex 12.940952255126048 48.29629131445342 1.9999999999999998
    vertex 17.67766952966369 17.67766952966369 1.9999999999999998
    vertex 25.000000000000007 43.30127018922194 1.9999999999999998
  endloop
endfacet
facet normal 2.0902954530508792e-33 3.8062182958024933e-33 1.0
  outer loop
    vertex 25.000000000000007 43.30127018922194 1.9999999999999998
    vertex 17.67766952966369 17.67766952966369 1.9999999999999998
    vertex 21.650635094610966 12.499999999999998 1.9999999999999998
  endloop
endfacet
facet normal 2.0902954530508792e-33 3.8062182958024933e-33 1.0
  outer loop
    vertex 25.000000000000007 43.30127018922194 1.9999999999999998
    vertex 21.650635094610966 12.499999999999998 1.9999999999999998
    vertex 24.148145657226706 6.4704761275630185 1.9999999999999998
  endloop
endfacet
facet normal 2.0902954530508792e-33 3.8062182958024933e-33 1.0
  outer loop
    vertex 25.000000000000007 43.30127018922194 1.9999999999999998
    vertex 24.148145657226706 6.4704761275630185 1.9999999999999998
    vertex 24.999999999999996 0.0 1.9999999999999998
  endloop
endfacet
facet normal 2.0902954530508792e-33 3.8062182958024933e-33 1.0
  outer loop
    vertex 25.000000000000007 43.30127018922194 1.9999999999999998
    vertex 24.999999999999996 0.0 1.9999999999999998
    vertex 50.00000000000001 0.0 1.9999999999999998
  endloop
endfacet
facet normal 2.0902954530508792e-33 3.8062182958024933e-33 1.0
  outer loop
    vertex 25.000000000000007 43.30127018922194 1.9999999999999998
    vertex 50.00000000000001 0.0 1.9999999999999998
    vertex 35.35533905932738 35.35533905932738 1.9999999999999998
  endloop
endfacet
facet normal 2.0902954530508792e-33 3.8062182958024933e-33 1.0
  outer loop
    vertex 35.35533905932738 35.35533905932738 1.9999999999999998
    vertex 50.00000000000001 0.0 1.9999999999999998
    vertex 43.30127018922194 25.0 1.9999999999999998
  endloop
endfacet
facet normal 2.0902954530508792e-33 3.8062182958024933e-33 1.0
  outer loop
    vertex 43.30127018922194 25.0 1.9999999999999998
    vertex 50.00000000000001 0.0 1.9999999999999998
    vertex 48.29629131445342 12.940952255126037 1.9999999999999998
  endloop
endfacet
facet normal -0.1305261922200509 0.9914448613738106 0.0
  outer loop
    vertex -12.940952255126023 48.29629131445343 1.9999999999999998
    vertex 1.4163847244119949e-14 50.00000000000001 0.0
    vertex -12.940952255126023 48.29629131445343 0.0
  endloop
endfacet
facet normal -0.1305261922200509 0.9914448613738106 0.0
  outer loop
    vertex 1.4163847244119949e-14 50.00000000000001 0.0
    vertex -12.940952255126023 48.29629131445343 1.9999999999999998
    vertex 1.4163847244119949e-14 50.00000000000001 1.9999999999999998
  endloop
endfacet
facet normal 0.13052619222005177 0.9914448613738104 0.0
  outer loop
    vertex 1.4163847244119949e-14 50.00000000000001 1.9999999999999998
    vertex 12.940952255126048 48.29629131445342 0.0
    vertex 1.4163847244119949e-14 50.00000000000001 0.0
  endloop
endfacet
facet normal 0.13052619222005177 0.9914448613738104 0.0
  outer loop
    vertex 12.940952255126048 48.29629131445342 0.0
    vertex 1.4163847244119949e-14 50.00000000000001 1.9999999999999998
    vertex 12.940952255126048 48.29629131445342 1.9999999999999998
  endloop
endfacet
facet normal 0.3826834323650898 0.9238795325112868 0.0
  outer loop
    vertex 12.940952255126048 48.29629131445342 1.9999999999999998
    vertex 25.000000000000007 43.30127018922194 0.0
    vertex 12.940952255126048 48.29629131445342 0.0
  endloop
endfacet
facet normal 0.3826834323650898 0.9238795325112868 0.0
  outer loop
    vertex 25.000000000000007 43.30127018922194 0.0
    vertex 12.940952255126048 48.29629131445342 1.9999999999999998
    vertex 25.000000000000007 43.30127018922194 1.9999999999999998
  endloop
endfacet
facet normal 0.6087614290087208 0.793353340291235 0.0
  outer loop
    vertex 25.000000000000007 43.30127018922194 1.9999999999999998
    vertex 35.35533905932738 35.35533905932738 0.0
    vertex 25.000000000000007 43.30127018922194 0.0
  endloop
endfacet
facet normal 0.6087614290087208 0.793353340291235 0.0
  outer loop
    vertex 35.35533905932738 35.35533905932738 0.0
    vertex 25.000000000000007 43.30127018922194 1.9999999999999998
    vertex 35.35533905932738 35.35533905932738 1.9999999999999998
  endloop
endfacet
facet normal 0.793353340291235 0.6087614290087208 0.0
  outer loop
    vertex 35.35533905932738 35.35533905932738 0.0
    vertex 43.30127018922194 25.0 1.9999999999999998
    vertex 43.30127018922194 25.0 0.0
  endloop
endfacet
facet normal 0.793353340291235 0.6087614290087208 0.0
  outer loop
    vertex 43.30127018922194 25.0 1.9999999999999998
    vertex 35.35533905932738 35.35533905932738 0.0
    vertex 35.35533905932738 35.35533905932738 1.9999999999999998
  endloop
endfacet
facet normal 0.9238795325112868 0.38268343236508967 0.0
  outer loop
    vertex 43.30127018922194 25.0 0.0
    vertex 48.29629131445342 12.940952255126037 1.9999999999999998
    vertex 48.29629131445342 12.940952255126037 0.0
  endloop
endfacet
facet normal 0.9238795325112868 0.38268343236508967 0.0
  outer loop
    vertex 48.29629131445342 12.940952255126037 1.9999999999999998
    vertex 43.30127018922194 25.0 0.0
    vertex 43.30127018922194 25.0 1.9999999999999998
  endloop
endfacet
facet normal 0.9914448613738105 0.13052619222005135 -0.0
  outer loop
    vertex 48.29629131445342 12.940952255126037 0.0
    vertex 50.00000000000001 0.0 1.9999999999999998
    vertex 50.00000000000001 0.0 0.0
  endloop
endfacet
facet normal 0.9914448613738105 0.13052619222005135 -0.0
  outer loop
    vertex 50.00000000000001 0.0 1.9999999999999998
    vertex 48.29629131445342 12.940952255126037 0.0
    vertex 48.29629131445342 12.940952255126037 1.9999999999999998
  endloop
endfacet
facet normal -0.9914448613738105 0.1305261922200513 0.0
  outer loop
    vertex -48.29629131445342 12.940952255126028 1.9999999999999998
    vertex -50.00000000000001 -1.6081226496766367e-14 0.0
    vertex -50.00000000000001 -1.6081226496766367e-14 1.9999999999999998
  endloop
endfacet
facet normal -0.9914448613738105 0.1305261922200513 0.0
  outer loop
    vertex -50.00000000000001 -1.6081226496766367e-14 0.0
    vertex -48.29629131445342 12.940952255126028 1.9999999999999998
    vertex -48.29629131445342 12.940952255126028 0.0
  endloop
endfacet
facet normal -0.923879532511287 0.38268343236508945 0.0
  outer loop
    vertex -43.30127018922194 25.0 1.9999999999999998
    vertex -48.29629131445342 12.940952255126028 0.0
    vertex -48.29629131445342 12.940952255126028 1.9999999999999998
  endloop
endfacet
facet normal -0.923879532511287 0.38268343236508945 0.0
  outer loop
    vertex -48.29629131445342 12.940952255126028 0.0
    vertex -43.30127018922194 25.0 1.9999999999999998
    vertex -43.30127018922194 25.0 0.0
  endloop
endfacet
facet normal -0.793353340291235 0.6087614290087211 0.0
  outer loop
    vertex -35.35533905932738 35.35533905932738 1.9999999999999998
    vertex -43.30127018922194 25.0 0.0
    vertex -43.30127018922194 25.0 1.9999999999999998
  endloop
endfacet
facet normal -0.793353340291235 0.6087614290087211 0.0
  outer loop
    vertex -43.30127018922194 25.0 0.0
    vertex -35.35533905932738 35.35533905932738 1.9999999999999998
    vertex -35.35533905932738 35.35533905932738 0.0
  endloop
endfacet
facet normal -0.6087614290087207 0.7933533402912353 0.0
  outer loop
    vertex -35.35533905932738 35.35533905932738 1.9999999999999998
    vertex -24.99999999999999 43.30127018922194 0.0
    vertex -35.35533905932738 35.35533905932738 0.0
  endloop
endfacet
facet normal -0.6087614290087207 0.7933533402912353 0.0
  outer loop
    vertex -24.99999999999999 43.30127018922194 0.0
    vertex -35.35533905932738 35.35533905932738 1.9999999999999998
    vertex -24.99999999999999 43.30127018922194 1.9999999999999998
  endloop
endfacet
facet normal -0.3826834323650899 0.9238795325112867 0.0
  outer loop
    vertex -24.99999999999999 43.30127018922194 1.9999999999999998
    vertex -12.940952255126023 48.29629131445343 0.0
    vertex -24.99999999999999 43.30127018922194 0.0
  endloop
endfacet
facet normal -0.3826834323650899 0.9238795325112867 0.0
  outer loop
    vertex -12.940952255126023 48.29629131445343 0.0
    vertex -24.99999999999999 43.30127018922194 1.9999999999999998
    vertex -12.940952255126023 48.29629131445343 1.9999999999999998
  endloop
endfacet
facet normal 0.0 0.0 -1.0
  outer loop
    vertex -48.29629131445342 12.940952255126028 0.0
    vertex -24.999999999999996 3.061616997868383e-15 0.0
    vertex -50.00000000000001 -1.6081226496766367e-14 0.0
  endloop
endfacet
facet normal 0.0 0.0 -1.0
  outer loop
    vertex -24.999999999999996 3.061616997868383e-15 0.0
    vertex -48.29629131445342 12.940952255126028 0.0
    vertex -43.30127018922194 25.0 0.0
  endloop
endfacet
facet normal 0.0 0.0 -1.0
  outer loop
    vertex -24.999999999999996 3.061616997868383e-15 0.0
    vertex -43.30127018922194 25.0 0.0
    vertex -35.35533905932738 35.35533905932738 0.0
  endloop
endfacet
facet normal 0.0 0.0 -1.0
  outer loop
    vertex -24.999999999999996 3.061616997868383e-15 0.0
    vertex -35.35533905932738 35.35533905932738 0.0
    vertex -24.99999999999999 43.30127018922194 0.0
  endloop
endfacet
facet normal 0.0 0.0 -1.0
  outer loop
    vertex -24.999999999999996 3.061616997868383e-15 0.0
    vertex -24.99999999999999 43.30127018922194 0.0
    vertex -24.148145657226703 6.470476127563026 0.0
  endloop
endfacet
facet normal 0.0 0.0 -1.0
  outer loop
    vertex -24.148145657226703 6.470476127563026 0.0
    vertex -24.99999999999999 43.30127018922194 0.0
    vertex -12.940952255126023 48.29629131445343 0.0
  endloop
endfacet
facet normal 0.0 0.0 -1.0
  outer loop
    vertex -24.148145657226703 6.470476127563026 0.0
    vertex -12.940952255126023 48.29629131445343 0.0
    vertex -21.65063509461096 12.500000000000009 0.0
  endloop
endfacet
facet normal 0.0 0.0 -1.0
  outer loop
    vertex -21.65063509461096 12.500000000000009 0.0
    vertex -12.940952255126023 48.29629131445343 0.0
    vertex -17.677669529663685 17.67766952966369 0.0
  endloop
endfacet
facet normal 0.0 0.0 -1.0
  outer loop
    vertex -17.677669529663685 17.67766952966369 0.0
    vertex -12.940952255126023 48.29629131445343 0.0
    vertex -12.499999999999993 21.65063509461097 0.0
  endloop
endfacet
facet normal 0.0 0.0 -1.0
  outer loop
    vertex -12.499999999999993 21.65063509461097 0.0
    vertex -12.940952255126023 48.29629131445343 0.0
    vertex 1.4163847244119949e-14 50.00000000000001 0.0
  endloop
endfacet
facet normal 0.0 0.0 -1.0
  outer loop
    vertex -12.499999999999993 21.65063509461097 0.0
    vertex 1.4163847244119949e-14 50.00000000000001 0.0
    vertex -6.470476127563014 24.14814565722671 0.0
  endloop
endfacet
facet normal 0.0 0.0 -1.0
  outer loop
    vertex -6.470476127563014 24.14814565722671 0.0
    vertex 1.4163847244119949e-14 50.00000000000001 0.0
    vertex 1.5308084989341911e-15 25.0 0.0
  endloop
endfacet
facet normal 0.0 0.0 -1.0
  outer loop
    vertex 1.5308084989341911e-15 25.0 0.0
    vertex 1.4163847244119949e-14 50.00000000000001 0.0
    vertex 6.470476127563023 24.148145657226706 0.0
  endloop
endfacet
facet normal 0.0 0.0 -1.0
  outer loop
    vertex 6.470476127563023 24.148145657226706 0.0
    vertex 1.4163847244119949e-14 50.00000000000001 0.0
    vertex 12.940952255126048 48.29629131445342 0.0
  endloop
endfacet
facet normal 0.0 0.0 -1.0
  outer loop
    vertex 6.470476127563023 24.148145657226706 0.0
    vertex 12.940952255126048 48.29629131445342 0.0
    vertex 12.500000000000002 21.650635094610966 0.0
  endloop
endfacet
facet normal 0.0 0.0 -1.0
  outer loop
    vertex 12.500000000000002 21.650635094610966 0.0
    vertex 12.940952255126048 48.29629131445342 0.0
    vertex 17.67766952966369 17.67766952966369 0.0
  endloop
endfacet
facet normal 0.0 0.0 -1.0
  outer loop
    vertex 17.67766952966369 17.67766952966369 0.0
    vertex 12.940952255126048 48.29629131445342 0.0
    vertex 25.000000000000007 43.30127018922194 0.0
  endloop
endfacet
facet normal 0.0 0.0 -1.0
  outer loop
    vertex 17.67766952966369 17.67766952966369 0.0
    vertex 25.000000000000007 43.30127018922194 0.0
    vertex 21.650635094610966 12.499999999999998 0.0
  endloop
endfacet
facet normal 0.0 0.0 -1.0
  outer loop
    vertex 21.650635094610966 12.499999999999998 0.0
    vertex 25.000000000000007 43.30127018922194 0.0
    vertex 24.148145657226706 6.4704761275630185 0.0
  endloop
endfacet
facet normal 0.0 0.0 -1.0
  outer loop
    vertex 24.148145657226706 6.4704761275630185 0.0
    vertex 25.000000000000007 43.30127018922194 0.0
    vertex 24.999999999999996 0.0 0.0
  endloop
endfacet
facet normal 0.0 0.0 -1.0
  outer loop
    vertex 24.999999999999996 0.0 0.0
    vertex 25.000000000000007 43.30127018922194 0.0
    vertex 50.00000000000001 0.0 0.0
  endloop
endfacet
facet normal 0.0 0.0 -1.0
  outer loop
    vertex 50.00000000000001 0.0 0.0
    vertex 25.000000000000007 43.30127018922194 0.0
    vertex 35.35533905932738 35.35533905932738 0.0
  endloop
endfacet
facet normal 0.0 0.0 -1.0
  outer loop
    vertex 50.00000000000001 0.0 0.0
    vertex 35.35533905932738 35.35533905932738 0.0
    vertex 43.30127018922194 25.0 0.0
  endloop
endfacet
facet normal 0.0 0.0 -1.0
  outer loop
    vertex 50.00000000000001 0.0 0.0
    vertex 43.30127018922194 25.0 0.0
    vertex 48.29629131445342 12.940952255126037 0.0
  endloop
endfacet
facet normal 0.6087614290087204 -0.7933533402912354 0.0
  outer loop
    vertex -12.499999999999993 21.65063509461097 1.9999999999999998
    vertex -17.677669529663685 17.67766952966369 0.0
    vertex -12.499999999999993 21.65063509461097 0.0
  endloop
endfacet
facet normal 0.6087614290087204 -0.7933533402912354 0.0
  outer loop
    vertex -17.677669529663685 17.67766952966369 0.0
    vertex -12.499999999999993 21.65063509461097 1.9999999999999998
    vertex -17.677669529663685 17.67766952966369 1.9999999999999998
  endloop
endfacet
facet normal 0.13052619222005143 -0.9914448613738105 0.0
  outer loop
    vertex 1.5308084989341911e-15 25.0 1.9999999999999998
    vertex -6.470476127563014 24.14814565722671 0.0
    vertex 1.5308084989341911e-15 25.0 0.0
  endloop
endfacet
facet normal 0.13052619222005143 -0.9914448613738105 0.0
  outer loop
    vertex -6.470476127563014 24.14814565722671 0.0
    vertex 1.5308084989341911e-15 25.0 1.9999999999999998
    vertex -6.470476127563014 24.14814565722671 1.9999999999999998
  endloop
endfacet
facet normal -0.7933533402912355 -0.6087614290087204 0.0
  outer loop
    vertex 17.67766952966369 17.67766952966369 1.9999999999999998
    vertex 21.650635094610966 12.499999999999998 0.0
    vertex 21.650635094610966 12.499999999999998 1.9999999999999998
  endloop
endfacet
facet normal -0.7933533402912355 -0.6087614290087204 0.0
  outer loop
    vertex 21.650635094610966 12.499999999999998 0.0
    vertex 17.67766952966369 17.67766952966369 1.9999999999999998
    vertex 17.67766952966369 17.67766952966369 0.0
  endloop
endfacet
facet normal -0.1305261922200517 -0.9914448613738105 0.0
  outer loop
    vertex 6.470476127563023 24.148145657226706 1.9999999999999998
    vertex 1.5308084989341911e-15 25.0 0.0
    vertex 6.470476127563023 24.148145657226706 0.0
  endloop
endfacet
facet normal -0.1305261922200517 -0.9914448613738105 0.0
  outer loop
    vertex 1.5308084989341911e-15 25.0 0.0
    vertex 6.470476127563023 24.148145657226706 1.9999999999999998
    vertex 1.5308084989341911e-15 25.0 1.9999999999999998
  endloop
endfacet
facet normal 0.7933533402912349 -0.6087614290087209 -0.0
  outer loop
    vertex -17.677669529663685 17.67766952966369 0.0
    vertex -21.65063509461096 12.500000000000009 1.9999999999999998
    vertex -21.65063509461096 12.500000000000009 0.0
  endloop
endfacet
facet normal 0.7933533402912349 -0.6087614290087209 -0.0
  outer loop
    vertex -21.65063509461096 12.500000000000009 1.9999999999999998
    vertex -17.677669529663685 17.67766952966369 0.0
    vertex -17.677669529663685 17.67766952966369 1.9999999999999998
  endloop
endfacet
facet normal 0.9914448613738105 -0.1305261922200517 -0.0
  outer loop
    vertex -24.148145657226703 6.470476127563026 0.0
    vertex -24.999999999999996 3.061616997868383e-15 1.9999999999999998
    vertex -24.999999999999996 3.061616997868383e-15 0.0
  endloop
endfacet
facet normal 0.9914448613738105 -0.1305261922200517 -0.0
  outer loop
    vertex -24.999999999999996 3.061616997868383e-15 1.9999999999999998
    vertex -24.148145657226703 6.470476127563026 0.0
    vertex -24.148145657226703 6.470476127563026 1.9999999999999998
  endloop
endfacet
facet normal -0.9238795325112867 -0.3826834323650898 0.0
  outer loop
    vertex 21.650635094610966 12.499999999999998 1.9999999999999998
    vertex 24.148145657226706 6.4704761275630185 0.0
    vertex 24.148145657226706 6.4704761275630185 1.9999999999999998
  endloop
endfacet
facet normal -0.9238795325112867 -0.3826834323650898 0.0
  outer loop
    vertex 24.148145657226706 6.4704761275630185 0.0
    vertex 21.650635094610966 12.499999999999998 1.9999999999999998
    vertex 21.650635094610966 12.499999999999998 0.0
  endloop
endfacet
facet normal 0.9238795325112867 -0.38268343236508995 -0.0
  outer loop
    vertex -21.65063509461096 12.500000000000009 0.0
    vertex -24.148145657226703 6.470476127563026 1.9999999999999998
    vertex -24.148145657226703 6.470476127563026 0.0
  endloop
endfacet
facet normal 0.9238795325112867 -0.38268343236508995 -0.0
  outer loop
    vertex -24.148145657226703 6.470476127563026 1.9999999999999998
    vertex -21.65063509461096 12.500000000000009 0.0
    vertex -21.65063509461096 12.500000000000009 1.9999999999999998
  endloop
endfacet
facet normal -0.6087614290087204 -0.7933533402912353 0.0
  outer loop
    vertex 17.67766952966369 17.67766952966369 1.9999999999999998
    vertex 12.500000000000002 21.650635094610966 0.0
    vertex 17.67766952966369 17.67766952966369 0.0
  endloop
endfacet
facet normal -0.6087614290087204 -0.7933533402912353 0.0
  outer loop
    vertex 12.500000000000002 21.650635094610966 0.0
    vertex 17.67766952966369 17.67766952966369 1.9999999999999998
    vertex 12.500000000000002 21.650635094610966 1.9999999999999998
  endloop
endfacet
facet normal -0.9914448613738105 -0.13052619222005135 0.0
  outer loop
    vertex 24.148145657226706 6.4704761275630185 1.9999999999999998
    vertex 24.999999999999996 0.0 0.0
    vertex 24.999999999999996 0.0 1.9999999999999998
  endloop
endfacet
facet normal -0.9914448613738105 -0.13052619222005135 0.0
  outer loop
    vertex 24.999999999999996 0.0 0.0
    vertex 24.148145657226706 6.4704761275630185 1.9999999999999998
    vertex 24.148145657226706 6.4704761275630185 0.0
  endloop
endfacet
facet normal -0.38268343236508984 -0.9238795325112867 0.0
  outer loop
    vertex 12.500000000000002 21.650635094610966 1.9999999999999998
    vertex 6.470476127563023 24.148145657226706 0.0
    vertex 12.500000000000002 21.650635094610966 0.0
  endloop
endfacet
facet normal -0.38268343236508984 -0.9238795325112867 0.0
  outer loop
    vertex 6.470476127563023 24.148145657226706 0.0
    vertex 12.500000000000002 21.650635094610966 1.9999999999999998
    vertex 6.470476127563023 24.148145657226706 1.9999999999999998
  endloop
endfacet
facet normal 0.38268343236508984 -0.9238795325112867 0.0
  outer loop
    vertex -6.470476127563014 24.14814565722671 1.9999999999999998
    vertex -12.499999999999993 21.65063509461097 0.0
    vertex -6.470476127563014 24.14814565722671 0.0
  endloop
endfacet
facet normal 0.38268343236508984 -0.9238795325112867 0.0
  outer loop
    vertex -12.499999999999993 21.65063509461097 0.0
    vertex -6.470476127563014 24.14814565722671 1.9999999999999998
    vertex -12.499999999999993 21.65063509461097 1.9999999999999998
  endloop
endfacet
facet normal -0.0 1.0 -0.0
  outer loop
    vertex 24.999999999999996 0.0 1.9999999999999998
    vertex 50.00000000000001 0.0 0.0
    vertex 24.999999999999996 0.0 0.0
  endloop
endfacet
facet normal -0.0 1.0 -0.0
  outer loop
    vertex 50.00000000000001 0.0 0.0
    vertex 24.999999999999996 0.0 1.9999999999999998
    vertex 50.00000000000001 0.0 1.9999999999999998
  endloop
endfacet
facet normal -7.657137397853898e-16 1.0 -0.0
  outer loop
    vertex -50.00000000000001 -1.6081226496766367e-14 1.9999999999999998
    vertex -24.999999999999996 3.061616997868383e-15 0.0
    vertex -50.00000000000001 -1.6081226496766367e-14 0.0
  endloop
endfacet
facet normal -7.657137397853898e-16 1.0 -0.0
  outer loop
    vertex -24.999999999999996 3.061616997868383e-15 0.0
    vertex -50.00000000000001 -1.6081226496766367e-14 1.9999999999999998
    vertex -24.999999999999996 3.061616997868383e-15 1.9999999999999998
  endloop
endfacet
endsolid フィラメントドラム3
