solid フィラメントドラム4
facet normal 0.3267799048515258 0.9451004675616387 0.0
  outer loop
    vertex 9.228699039776624 45.06474358113253 79.0
    vertex 20.577852647028045 41.14063660709689 0.0
    vertex 9.228699039776624 45.06474358113253 0.0
  endloop
endfacet
facet normal 0.3267799048515258 0.9451004675616387 0.0
  outer loop
    vertex 20.577852647028045 41.14063660709689 0.0
    vertex 9.228699039776624 45.06474358113253 79.0
    vertex 20.577852647028045 41.14063660709689 79.0
  endloop
endfacet
facet normal 0.5602551501486228 0.8283200871232957 0.0
  outer loop
    vertex 20.577852647028045 41.14063660709689 79.0
    vertex 30.524659602893887 34.41286323640417 0.0
    vertex 20.577852647028045 41.14063660709689 0.0
  endloop
endfacet
facet normal 0.5602551501486228 0.8283200871232957 0.0
  outer loop
    vertex 30.524659602893887 34.41286323640417 0.0
    vertex 20.577852647028045 41.14063660709689 79.0
    vertex 30.524659602893887 34.41286323640417 79.0
  endloop
endfacet
facet normal 0.7555499328285028 0.6550910616111666 0.0
  outer loop
    vertex 30.524659602893887 34.41286323640417 0.0
    vertex 38.3912614512076 25.339910106095903 79.0
    vertex 38.3912614512076 25.339910106095903 0.0
  endloop
endfacet
facet normal 0.7555499328285028 0.6550910616111666 0.0
  outer loop
    vertex 38.3912614512076 25.339910106095903 79.0
    vertex 30.524659602893887 34.41286323640417 0.0
    vertex 30.524659602893887 34.41286323640417 79.0
  endloop
endfacet
facet normal 0.8993552361914203 0.437218662839402 0.0
  outer loop
    vertex 38.3912614512076 25.339910106095903 0.0
    vertex 43.641562276180814 14.540083978238627 79.0
    vertex 43.641562276180814 14.540083978238627 0.0
  endloop
endfacet
facet normal 0.8993552361914203 0.437218662839402 0.0
  outer loop
    vertex 43.641562276180814 14.540083978238627 79.0
    vertex 38.3912614512076 25.339910106095903 0.0
    vertex 38.3912614512076 25.339910106095903 79.0
  endloop
endfacet
facet normal 0.981870966462693 0.18955053473313532 0.0
  outer loop
    vertex 43.641562276180814 14.540083978238627 0.0
    vertex 45.91776275312397 2.7493751558892754 79.0
    vertex 45.91776275312397 2.7493751558892754 0.0
  endloop
endfacet
facet normal 0.981870966462693 0.18955053473313532 0.0
  outer loop
    vertex 45.91776275312397 2.7493751558892754 79.0
    vertex 43.641562276180814 14.540083978238627 0.0
    vertex 43.641562276180814 14.540083978238627 79.0
  endloop
endfacet
facet normal 0.997473812988025 -0.07103514906812643 1.408515883920672e-15
  outer loop
    vertex 45.91776275312397 2.7493751558892754 0.0
    vertex 45.721965859511535 0.0 79.0
    vertex 45.72196585951154 0.0 0.0
  endloop
endfacet
facet normal 0.997473812988025 -0.07103514906812643 1.408515883920672e-15
  outer loop
    vertex 45.721965859511535 0.0 79.0
    vertex 45.91776275312397 2.7493751558892754 0.0
    vertex 45.91776275312397 2.7493751558892754 79.0
  endloop
endfacet
facet normal -0.997473812988025 0.07103514906812511 0.0
  outer loop
    vertex 25.953518077852678 1.5539946533287097 79.0
    vertex 25.84285026841957 0.0 0.0
    vertex 25.84285026841957 0.0 79.0
  endloop
endfacet
facet normal -0.997473812988025 0.07103514906812511 0.0
  outer loop
    vertex 25.84285026841957 0.0 0.0
    vertex 25.953518077852678 1.5539946533287097 79.0
    vertex 25.953518077852678 1.5539946533287097 0.0
  endloop
endfacet
facet normal -0.981870966462693 -0.18955053473313552 -0.0
  outer loop
    vertex 24.66696998218916 8.218308335526169 79.0
    vertex 25.953518077852678 1.5539946533287097 0.0
    vertex 25.953518077852678 1.5539946533287097 79.0
  endloop
endfacet
facet normal -0.981870966462693 -0.18955053473313552 -0.0
  outer loop
    vertex 25.953518077852678 1.5539946533287097 0.0
    vertex 24.66696998218916 8.218308335526169 79.0
    vertex 24.66696998218916 8.218308335526169 0.0
  endloop
endfacet
facet normal -0.8993552361914207 -0.4372186628394012 -0.0
  outer loop
    vertex 21.699408646334735 14.322557886054197 79.0
    vertex 24.66696998218916 8.218308335526169 0.0
    vertex 24.66696998218916 8.218308335526169 79.0
  endloop
endfacet
facet normal -0.8993552361914207 -0.4372186628394012 -0.0
  outer loop
    vertex 24.66696998218916 8.218308335526169 0.0
    vertex 21.699408646334735 14.322557886054197 79.0
    vertex 21.699408646334735 14.322557886054197 0.0
  endloop
endfacet
facet normal -0.7555499328285032 -0.6550910616111659 -0.0
  outer loop
    vertex 17.253068471200912 19.450748785793646 79.0
    vertex 21.699408646334735 14.322557886054197 0.0
    vertex 21.699408646334735 14.322557886054197 79.0
  endloop
endfacet
facet normal -0.7555499328285032 -0.6550910616111659 -0.0
  outer loop
    vertex 21.699408646334735 14.322557886054197 0.0
    vertex 17.253068471200912 19.450748785793646 79.0
    vertex 17.253068471200912 19.450748785793646 0.0
  endloop
endfacet
facet normal -0.5602551501486231 -0.8283200871232953 -0.0
  outer loop
    vertex 17.253068471200912 19.450748785793646 79.0
    vertex 11.630960191798483 23.253403299663447 0.0
    vertex 17.253068471200912 19.450748785793646 0.0
  endloop
endfacet
facet normal -0.5602551501486231 -0.8283200871232953 -0.0
  outer loop
    vertex 11.630960191798483 23.253403299663447 0.0
    vertex 17.253068471200912 19.450748785793646 79.0
    vertex 11.630960191798483 23.253403299663447 79.0
  endloop
endfacet
facet normal -0.32677990485152714 -0.9451004675616381 -0.0
  outer loop
    vertex 11.630960191798483 23.253403299663447 79.0
    vertex 5.216221196395518 25.471376806727076 0.0
    vertex 11.630960191798483 23.253403299663447 0.0
  endloop
endfacet
facet normal -0.32677990485152714 -0.9451004675616381 -0.0
  outer loop
    vertex 5.216221196395518 25.471376806727076 0.0
    vertex 11.630960191798483 23.253403299663447 79.0
    vertex 5.216221196395518 25.471376806727076 79.0
  endloop
endfacet
facet normal -0.0 1.0 -0.0
  outer loop
    vertex 25.84285026841957 0.0 79.0
    vertex 45.72196585951154 0.0 0.0
    vertex 25.84285026841957 0.0 0.0
  endloop
endfacet
facet normal -0.0 1.0 -0.0
  outer loop
    vertex 45.72196585951154 0.0 0.0
    vertex 25.84285026841957 0.0 79.0
    vertex 45.721965859511535 0.0 79.0
  endloop
endfacet
facet normal 0.0 0.0 -1.0
  outer loop
    vertex 0.0 25.84285026841957 0.0
    vertex 2.0 27.70548533479605 0.0
    vertex 5.216221196395518 25.471376806727076 0.0
  endloop
endfacet
facet normal 0.0 0.0 -1.0
  outer loop
    vertex 2.0 27.70548533479605 0.0
    vertex 0.0 25.84285026841957 0.0
    vertex 2.0 43.574470586708856 0.0
  endloop
endfacet
facet normal 0.0 0.0 -1.0
  outer loop
    vertex 5.216221196395518 25.471376806727076 0.0
    vertex 2.0 27.70548533479605 0.0
    vertex 5.620931332047559 27.447620523120506 0.0
  endloop
endfacet
facet normal 0.0 0.0 -1.0
  outer loop
    vertex 5.216221196395518 25.471376806727076 0.0
    vertex 5.620931332047559 27.447620523120506 0.0
    vertex 11.630960191798483 23.253403299663447 0.0
  endloop
endfacet
facet normal 0.0 0.0 -1.0
  outer loop
    vertex 11.630960191798483 23.253403299663447 0.0
    vertex 5.620931332047559 27.447620523120506 0.0
    vertex 12.533369675552548 25.057561453516573 0.0
  endloop
endfacet
facet normal 0.0 0.0 -1.0
  outer loop
    vertex 11.630960191798483 23.253403299663447 0.0
    vertex 12.533369675552548 25.057561453516573 0.0
    vertex 17.253068471200912 19.450748785793646 0.0
  endloop
endfacet
facet normal 0.0 0.0 -1.0
  outer loop
    vertex 17.253068471200912 19.450748785793646 0.0
    vertex 12.533369675552548 25.057561453516573 0.0
    vertex 18.59167958804134 20.9598709804337 0.0
  endloop
endfacet
facet normal 0.0 0.0 -1.0
  outer loop
    vertex 17.253068471200912 19.450748785793646 0.0
    vertex 18.59167958804134 20.9598709804337 0.0
    vertex 21.699408646334735 14.322557886054197 0.0
  endloop
endfacet
facet normal 0.0 0.0 -1.0
  outer loop
    vertex 21.699408646334735 14.322557886054197 0.0
    vertex 18.59167958804134 20.9598709804337 0.0
    vertex 23.38299726080832 15.433799937858806 0.0
  endloop
endfacet
facet normal 0.0 0.0 -1.0
  outer loop
    vertex 21.699408646334735 14.322557886054197 0.0
    vertex 23.38299726080832 15.433799937858806 0.0
    vertex 24.66696998218916 8.218308335526169 0.0
  endloop
endfacet
facet normal 0.0 0.0 -1.0
  outer loop
    vertex 24.66696998218916 8.218308335526169 0.0
    vertex 23.38299726080832 15.433799937858806 0.0
    vertex 26.580802312481257 8.855940935079166 0.0
  endloop
endfacet
facet normal 0.0 0.0 -1.0
  outer loop
    vertex 24.66696998218916 8.218308335526169 0.0
    vertex 26.580802312481257 8.855940935079166 0.0
    vertex 25.953518077852678 1.5539946533287097 0.0
  endloop
endfacet
facet normal 0.0 0.0 -1.0
  outer loop
    vertex 0.0 45.721965859511535 0.0
    vertex 2.0 43.574470586708856 0.0
    vertex 0.0 25.84285026841957 0.0
  endloop
endfacet
facet normal 0.0 0.0 -1.0
  outer loop
    vertex 2.0 43.574470586708856 0.0
    vertex 0.0 45.721965859511535 0.0
    vertex 9.228699039776624 45.06474358113253 0.0
  endloop
endfacet
facet normal 0.0 0.0 -1.0
  outer loop
    vertex 2.0 43.574470586708856 0.0
    vertex 9.228699039776624 45.06474358113253 0.0
    vertex 8.823988904124581 43.088499864739106 0.0
  endloop
endfacet
facet normal 0.0 0.0 -1.0
  outer loop
    vertex 8.823988904124581 43.088499864739106 0.0
    vertex 9.228699039776624 45.06474358113253 0.0
    vertex 19.675443163273982 39.336478453243764 0.0
  endloop
endfacet
facet normal 0.0 0.0 -1.0
  outer loop
    vertex 19.675443163273982 39.336478453243764 0.0
    vertex 9.228699039776624 45.06474358113253 0.0
    vertex 20.577852647028045 41.14063660709689 0.0
  endloop
endfacet
facet normal 0.0 0.0 -1.0
  outer loop
    vertex 19.675443163273982 39.336478453243764 0.0
    vertex 20.577852647028045 41.14063660709689 0.0
    vertex 29.18604848605346 32.90374104176411 0.0
  endloop
endfacet
facet normal 0.0 0.0 -1.0
  outer loop
    vertex 29.18604848605346 32.90374104176411 0.0
    vertex 20.577852647028045 41.14063660709689 0.0
    vertex 30.524659602893887 34.41286323640417 0.0
  endloop
endfacet
facet normal 0.0 0.0 -1.0
  outer loop
    vertex 29.18604848605346 32.90374104176411 0.0
    vertex 30.524659602893887 34.41286323640417 0.0
    vertex 36.70767283673401 24.22866805429129 0.0
  endloop
endfacet
facet normal 0.0 0.0 -1.0
  outer loop
    vertex 36.70767283673401 24.22866805429129 0.0
    vertex 30.524659602893887 34.41286323640417 0.0
    vertex 38.3912614512076 25.339910106095903 0.0
  endloop
endfacet
facet normal 0.0 0.0 -1.0
  outer loop
    vertex 36.70767283673401 24.22866805429129 0.0
    vertex 38.3912614512076 25.339910106095903 0.0
    vertex 41.72772994588871 13.902451378685631 0.0
  endloop
endfacet
facet normal 0.0 0.0 -1.0
  outer loop
    vertex 41.72772994588871 13.902451378685631 0.0
    vertex 38.3912614512076 25.339910106095903 0.0
    vertex 43.641562276180814 14.540083978238627 0.0
  endloop
endfacet
facet normal 0.0 0.0 -1.0
  outer loop
    vertex 41.72772994588871 13.902451378685631 0.0
    vertex 43.641562276180814 14.540083978238627 0.0
    vertex 43.90411121756529 2.628805616509734 0.0
  endloop
endfacet
facet normal 0.0 0.0 -1.0
  outer loop
    vertex 43.90411121756529 2.628805616509734 0.0
    vertex 43.641562276180814 14.540083978238627 0.0
    vertex 45.91776275312397 2.7493751558892754 0.0
  endloop
endfacet
facet normal 0.0 0.0 -1.0
  outer loop
    vertex 43.90411121756529 2.628805616509734 0.0
    vertex 45.91776275312397 2.7493751558892754 0.0
    vertex 45.72196585951154 0.0 0.0
  endloop
endfacet
facet normal 0.0 0.0 -1.0
  outer loop
    vertex 25.953518077852678 1.5539946533287097 0.0
    vertex 45.72196585951154 0.0 0.0
    vertex 25.84285026841957 0.0 0.0
  endloop
endfacet
facet normal 0.0 0.0 -1.0
  outer loop
    vertex 45.72196585951154 0.0 0.0
    vertex 25.953518077852678 1.5539946533287097 0.0
    vertex 27.904344116578816 1.9999999999999998 0.0
  endloop
endfacet
facet normal 0.0 0.0 -1.0
  outer loop
    vertex 27.904344116578816 1.9999999999999998 0.0
    vertex 25.953518077852678 1.5539946533287097 0.0
    vertex 26.580802312481257 8.855940935079166 0.0
  endloop
endfacet
facet normal 0.0 0.0 -1.0
  outer loop
    vertex 45.72196585951154 0.0 0.0
    vertex 27.904344116578816 1.9999999999999998 0.0
    vertex 43.85933079313506 2.0 0.0
  endloop
endfacet
facet normal 0.0 0.0 -1.0
  outer loop
    vertex 45.72196585951154 0.0 0.0
    vertex 43.85933079313506 2.0 0.0
    vertex 43.90411121756529 2.628805616509734 0.0
  endloop
endfacet
facet normal -1.0 0.0 0.0
  outer loop
    vertex 0.0 45.721965859511535 79.0
    vertex 0.0 25.84285026841957 0.0
    vertex 0.0 25.84285026841957 79.0
  endloop
endfacet
facet normal -1.0 0.0 0.0
  outer loop
    vertex 0.0 25.84285026841957 0.0
    vertex 0.0 45.721965859511535 79.0
    vertex 0.0 45.721965859511535 0.0
  endloop
endfacet
facet normal 0.07103514906812379 0.9974738129880252 -0.0
  outer loop
    vertex 0.0 45.721965859511535 79.0
    vertex 9.228699039776624 45.06474358113253 0.0
    vertex 0.0 45.721965859511535 0.0
  endloop
endfacet
facet normal 0.07103514906812379 0.9974738129880252 -0.0
  outer loop
    vertex 9.228699039776624 45.06474358113253 0.0
    vertex 0.0 45.721965859511535 79.0
    vertex 9.228699039776624 45.06474358113253 79.0
  endloop
endfacet
facet normal -0.07103514906812591 -0.997473812988025 0.0
  outer loop
    vertex 5.216221196395518 25.471376806727076 79.0
    vertex 0.0 25.84285026841957 0.0
    vertex 5.216221196395518 25.471376806727076 0.0
  endloop
endfacet
facet normal -0.07103514906812591 -0.997473812988025 0.0
  outer loop
    vertex 0.0 25.84285026841957 0.0
    vertex 5.216221196395518 25.471376806727076 79.0
    vertex 0.0 25.84285026841957 79.0
  endloop
endfacet
facet normal 0.0 0.0 1.0
  outer loop
    vertex 45.721965859511535 0.0 79.0
    vertex 25.953518077852678 1.5539946533287097 79.0
    vertex 25.84285026841957 0.0 79.0
  endloop
endfacet
facet normal 0.0 0.0 1.0
  outer loop
    vertex 25.953518077852678 1.5539946533287097 79.0
    vertex 45.721965859511535 0.0 79.0
    vertex 27.904344116578816 1.9999999999999998 79.0
  endloop
endfacet
facet normal 0.0 0.0 1.0
  outer loop
    vertex 25.953518077852678 1.5539946533287097 79.0
    vertex 27.904344116578816 1.9999999999999998 79.0
    vertex 26.580802312481257 8.855940935079166 79.0
  endloop
endfacet
facet normal 0.0 0.0 1.0
  outer loop
    vertex 27.904344116578816 1.9999999999999998 79.0
    vertex 45.721965859511535 0.0 79.0
    vertex 43.85933079313506 2.0 79.0
  endloop
endfacet
facet normal 0.0 0.0 1.0
  outer loop
    vertex 43.85933079313506 2.0 79.0
    vertex 45.721965859511535 0.0 79.0
    vertex 43.90411121756529 2.628805616509734 79.0
  endloop
endfacet
facet normal 0.0 0.0 1.0
  outer loop
    vertex 0.0 45.721965859511535 79.0
    vertex 2.0 43.574470586708856 79.0
    vertex 9.228699039776624 45.06474358113253 79.0
  endloop
endfacet
facet normal 0.0 0.0 1.0
  outer loop
    vertex 2.0 43.574470586708856 79.0
    vertex 0.0 45.721965859511535 79.0
    vertex 2.0 27.70548533479605 79.0
  endloop
endfacet
facet normal 0.0 0.0 1.0
  outer loop
    vertex 9.228699039776624 45.06474358113253 79.0
    vertex 2.0 43.574470586708856 79.0
    vertex 8.823988904124581 43.088499864739106 79.0
  endloop
endfacet
facet normal 0.0 0.0 1.0
  outer loop
    vertex 9.228699039776624 45.06474358113253 79.0
    vertex 8.823988904124581 43.088499864739106 79.0
    vertex 19.675443163273982 39.336478453243764 79.0
  endloop
endfacet
facet normal 0.0 0.0 1.0
  outer loop
    vertex 9.228699039776624 45.06474358113253 79.0
    vertex 19.675443163273982 39.336478453243764 79.0
    vertex 20.577852647028045 41.14063660709689 79.0
  endloop
endfacet
facet normal 0.0 0.0 1.0
  outer loop
    vertex 20.577852647028045 41.14063660709689 79.0
    vertex 19.675443163273982 39.336478453243764 79.0
    vertex 29.18604848605346 32.90374104176411 79.0
  endloop
endfacet
facet normal 0.0 0.0 1.0
  outer loop
    vertex 20.577852647028045 41.14063660709689 79.0
    vertex 29.18604848605346 32.90374104176411 79.0
    vertex 30.524659602893887 34.41286323640417 79.0
  endloop
endfacet
facet normal 0.0 0.0 1.0
  outer loop
    vertex 30.524659602893887 34.41286323640417 79.0
    vertex 29.18604848605346 32.90374104176411 79.0
    vertex 36.70767283673401 24.22866805429129 79.0
  endloop
endfacet
facet normal 0.0 0.0 1.0
  outer loop
    vertex 30.524659602893887 34.41286323640417 79.0
    vertex 36.70767283673401 24.22866805429129 79.0
    vertex 38.3912614512076 25.339910106095903 79.0
  endloop
endfacet
facet normal 0.0 0.0 1.0
  outer loop
    vertex 38.3912614512076 25.339910106095903 79.0
    vertex 36.70767283673401 24.22866805429129 79.0
    vertex 41.72772994588871 13.902451378685631 79.0
  endloop
endfacet
facet normal 0.0 0.0 1.0
  outer loop
    vertex 38.3912614512076 25.339910106095903 79.0
    vertex 41.72772994588871 13.902451378685631 79.0
    vertex 43.641562276180814 14.540083978238627 79.0
  endloop
endfacet
facet normal 0.0 0.0 1.0
  outer loop
    vertex 43.641562276180814 14.540083978238627 79.0
    vertex 41.72772994588871 13.902451378685631 79.0
    vertex 43.90411121756529 2.628805616509734 79.0
  endloop
endfacet
facet normal 0.0 0.0 1.0
  outer loop
    vertex 43.641562276180814 14.540083978238627 79.0
    vertex 43.90411121756529 2.628805616509734 79.0
    vertex 45.91776275312397 2.7493751558892754 79.0
  endloop
endfacet
facet normal 0.0 0.0 1.0
  outer loop
    vertex 45.91776275312397 2.7493751558892754 79.0
    vertex 43.90411121756529 2.628805616509734 79.0
    vertex 45.721965859511535 0.0 79.0
  endloop
endfacet
facet normal 0.0 0.0 1.0
  outer loop
    vertex 0.0 25.84285026841957 79.0
    vertex 2.0 27.70548533479605 79.0
    vertex 0.0 45.721965859511535 79.0
  endloop
endfacet
facet normal 0.0 0.0 1.0
  outer loop
    vertex 2.0 27.70548533479605 79.0
    vertex 0.0 25.84285026841957 79.0
    vertex 5.216221196395518 25.471376806727076 79.0
  endloop
endfacet
facet normal 0.0 0.0 1.0
  outer loop
    vertex 2.0 27.70548533479605 79.0
    vertex 5.216221196395518 25.471376806727076 79.0
    vertex 5.620931332047559 27.447620523120506 79.0
  endloop
endfacet
facet normal 0.0 0.0 1.0
  outer loop
    vertex 5.620931332047559 27.447620523120506 79.0
    vertex 5.216221196395518 25.471376806727076 79.0
    vertex 11.630960191798483 23.253403299663447 79.0
  endloop
endfacet
facet normal 0.0 0.0 1.0
  outer loop
    vertex 5.620931332047559 27.447620523120506 79.0
    vertex 11.630960191798483 23.253403299663447 79.0
    vertex 12.533369675552548 25.057561453516573 79.0
  endloop
endfacet
facet normal 0.0 0.0 1.0
  outer loop
    vertex 12.533369675552548 25.057561453516573 79.0
    vertex 11.630960191798483 23.253403299663447 79.0
    vertex 17.253068471200912 19.450748785793646 79.0
  endloop
endfacet
facet normal 0.0 0.0 1.0
  outer loop
    vertex 12.533369675552548 25.057561453516573 79.0
    vertex 17.253068471200912 19.450748785793646 79.0
    vertex 18.59167958804134 20.9598709804337 79.0
  endloop
endfacet
facet normal 0.0 0.0 1.0
  outer loop
    vertex 18.59167958804134 20.9598709804337 79.0
    vertex 17.253068471200912 19.450748785793646 79.0
    vertex 21.699408646334735 14.322557886054197 79.0
  endloop
endfacet
facet normal 0.0 0.0 1.0
  outer loop
    vertex 18.59167958804134 20.9598709804337 79.0
    vertex 21.699408646334735 14.322557886054197 79.0
    vertex 23.38299726080832 15.433799937858806 79.0
  endloop
endfacet
facet normal 0.0 0.0 1.0
  outer loop
    vertex 23.38299726080832 15.433799937858806 79.0
    vertex 21.699408646334735 14.322557886054197 79.0
    vertex 24.66696998218916 8.218308335526169 79.0
  endloop
endfacet
facet normal 0.0 0.0 1.0
  outer loop
    vertex 23.38299726080832 15.433799937858806 79.0
    vertex 24.66696998218916 8.218308335526169 79.0
    vertex 26.580802312481257 8.855940935079166 79.0
  endloop
endfacet
facet normal 0.0 0.0 1.0
  outer loop
    vertex 26.580802312481257 8.855940935079166 79.0
    vertex 24.66696998218916 8.218308335526169 79.0
    vertex 25.953518077852678 1.5539946533287097 79.0
  endloop
endfacet
facet normal 1.0 0.0 0.0
  outer loop
    vertex 2.0 43.574470586708856 0.0
    vertex 2.0 27.70548533479605 79.0
    vertex 2.0 27.70548533479605 0.0
  endloop
endfacet
facet normal 1.0 0.0 0.0
  outer loop
    vertex 2.0 27.70548533479605 79.0
    vertex 2.0 43.574470586708856 0.0
    vertex 2.0 43.574470586708856 79.0
  endloop
endfacet
facet normal 0.07103514906812597 0.997473812988025 0.0
  outer loop
    vertex 2.0 27.70548533479605 79.0
    vertex 5.620931332047559 27.447620523120506 0.0
    vertex 2.0 27.70548533479605 0.0
  endloop
endfacet
facet normal 0.07103514906812597 0.997473812988025 0.0
  outer loop
    vertex 5.620931332047559 27.447620523120506 0.0
    vertex 2.0 27.70548533479605 79.0
    vertex 5.620931332047559 27.447620523120506 79.0
  endloop
endfacet
facet normal 0.32677990485152725 0.9451004675616381 0.0
  outer loop
    vertex 5.620931332047559 27.447620523120506 79.0
    vertex 12.533369675552548 25.057561453516573 0.0
    vertex 5.620931332047559 27.447620523120506 0.0
  endloop
endfacet
facet normal 0.32677990485152725 0.9451004675616381 0.0
  outer loop
    vertex 12.533369675552548 25.057561453516573 0.0
    vertex 5.620931332047559 27.447620523120506 79.0
    vertex 12.533369675552548 25.057561453516573 79.0
  endloop
endfacet
facet normal 0.5602551501486235 0.8283200871232954 0.0
  outer loop
    vertex 12.533369675552548 25.057561453516573 79.0
    vertex 18.59167958804134 20.9598709804337 0.0
    vertex 12.533369675552548 25.057561453516573 0.0
  endloop
endfacet
facet normal 0.5602551501486235 0.8283200871232954 0.0
  outer loop
    vertex 18.59167958804134 20.9598709804337 0.0
    vertex 12.533369675552548 25.057561453516573 79.0
    vertex 18.59167958804134 20.9598709804337 79.0
  endloop
endfacet
facet normal 0.7555499328285032 0.6550910616111658 0.0
  outer loop
    vertex 18.59167958804134 20.9598709804337 0.0
    vertex 23.38299726080832 15.433799937858806 79.0
    vertex 23.38299726080832 15.433799937858806 0.0
  endloop
endfacet
facet normal 0.7555499328285032 0.6550910616111658 0.0
  outer loop
    vertex 23.38299726080832 15.433799937858806 79.0
    vertex 18.59167958804134 20.9598709804337 0.0
    vertex 18.59167958804134 20.9598709804337 79.0
  endloop
endfacet
facet normal 0.8993552361914204 0.4372186628394016 0.0
  outer loop
    vertex 23.38299726080832 15.433799937858806 0.0
    vertex 26.580802312481257 8.855940935079166 79.0
    vertex 26.580802312481257 8.855940935079166 0.0
  endloop
endfacet
facet normal 0.8993552361914204 0.4372186628394016 0.0
  outer loop
    vertex 26.580802312481257 8.855940935079166 79.0
    vertex 23.38299726080832 15.433799937858806 0.0
    vertex 23.38299726080832 15.433799937858806 79.0
  endloop
endfacet
facet normal 0.981870966462693 0.1895505347331349 0.0
  outer loop
    vertex 26.580802312481257 8.855940935079166 0.0
    vertex 27.904344116578816 1.9999999999999998 79.0
    vertex 27.904344116578816 1.9999999999999998 0.0
  endloop
endfacet
facet normal 0.981870966462693 0.1895505347331349 0.0
  outer loop
    vertex 27.904344116578816 1.9999999999999998 79.0
    vertex 26.580802312481257 8.855940935079166 0.0
    vertex 26.580802312481257 8.855940935079166 79.0
  endloop
endfacet
facet normal -2.2093143508319784e-17 1.0 -0.0
  outer loop
    vertex 27.904344116578816 1.9999999999999998 79.0
    vertex 43.85933079313506 2.0 0.0
    vertex 27.904344116578816 1.9999999999999998 0.0
  endloop
endfacet
facet normal -2.2093143508319784e-17 1.0 -0.0
  outer loop
    vertex 43.85933079313506 2.0 0.0
    vertex 27.904344116578816 1.9999999999999998 79.0
    vertex 43.85933079313506 2.0 79.0
  endloop
endfacet
facet normal -0.9974738129880251 0.0710351490681246 -0.0
  outer loop
    vertex 43.90411121756529 2.628805616509734 79.0
    vertex 43.85933079313506 2.0 0.0
    vertex 43.85933079313506 2.0 79.0
  endloop
endfacet
facet normal -0.9974738129880251 0.0710351490681246 -0.0
  outer loop
    vertex 43.85933079313506 2.0 0.0
    vertex 43.90411121756529 2.628805616509734 79.0
    vertex 43.90411121756529 2.628805616509734 0.0
  endloop
endfacet
facet normal -0.981870966462693 -0.1895505347331351 -0.0
  outer loop
    vertex 41.72772994588871 13.902451378685631 79.0
    vertex 43.90411121756529 2.628805616509734 0.0
    vertex 43.90411121756529 2.628805616509734 79.0
  endloop
endfacet
facet normal -0.981870966462693 -0.1895505347331351 -0.0
  outer loop
    vertex 43.90411121756529 2.628805616509734 0.0
    vertex 41.72772994588871 13.902451378685631 79.0
    vertex 41.72772994588871 13.902451378685631 0.0
  endloop
endfacet
facet normal -0.8993552361914203 -0.4372186628394023 -0.0
  outer loop
    vertex 36.70767283673401 24.22866805429129 79.0
    vertex 41.72772994588871 13.902451378685631 0.0
    vertex 41.72772994588871 13.902451378685631 79.0
  endloop
endfacet
facet normal -0.8993552361914203 -0.4372186628394023 -0.0
  outer loop
    vertex 41.72772994588871 13.902451378685631 0.0
    vertex 36.70767283673401 24.22866805429129 79.0
    vertex 36.70767283673401 24.22866805429129 0.0
  endloop
endfacet
facet normal -0.7555499328285026 -0.6550910616111666 -0.0
  outer loop
    vertex 29.18604848605346 32.90374104176411 79.0
    vertex 36.70767283673401 24.22866805429129 0.0
    vertex 36.70767283673401 24.22866805429129 79.0
  endloop
endfacet
facet normal -0.7555499328285026 -0.6550910616111666 -0.0
  outer loop
    vertex 36.70767283673401 24.22866805429129 0.0
    vertex 29.18604848605346 32.90374104176411 79.0
    vertex 29.18604848605346 32.90374104176411 0.0
  endloop
endfacet
facet normal -0.560255150148623 -0.8283200871232955 -0.0
  outer loop
    vertex 29.18604848605346 32.90374104176411 79.0
    vertex 19.675443163273982 39.336478453243764 0.0
    vertex 29.18604848605346 32.90374104176411 0.0
  endloop
endfacet
facet normal -0.560255150148623 -0.8283200871232955 -0.0
  outer loop
    vertex 19.675443163273982 39.336478453243764 0.0
    vertex 29.18604848605346 32.90374104176411 79.0
    vertex 19.675443163273982 39.336478453243764 79.0
  endloop
endfacet
facet normal -0.3267799048515261 -0.9451004675616386 -0.0
  outer loop
    vertex 19.675443163273982 39.336478453243764 79.0
    vertex 8.823988904124581 43.088499864739106 0.0
    vertex 19.675443163273982 39.336478453243764 0.0
  endloop
endfacet
facet normal -0.3267799048515261 -0.9451004675616386 -0.0
  outer loop
    vertex 8.823988904124581 43.088499864739106 0.0
    vertex 19.675443163273982 39.336478453243764 79.0
    vertex 8.823988904124581 43.088499864739106 79.0
  endloop
endfacet
facet normal -0.07103514906812332 -0.9974738129880252 -0.0
  outer loop
    vertex 8.823988904124581 43.088499864739106 79.0
    vertex 2.0 43.574470586708856 0.0
    vertex 8.823988904124581 43.088499864739106 0.0
  endloop
endfacet
facet normal -0.07103514906812332 -0.9974738129880252 -0.0
  outer loop
    vertex 2.0 43.574470586708856 0.0
    vertex 8.823988904124581 43.088499864739106 79.0
    vertex 2.0 43.574470586708856 79.0
  endloop
endfacet
endsolid フィラメントドラム4
