solid コーン
facet normal 0.0 0.0 -1.0
outer loop
vertex -7.071067811865475 7.071067811865476 0.0
vertex -7.982742078839695 -4.4502596052709e-15 0.0
vertex -8.660254037844386 5.000000000000002 0.0
endloop
endfacet
facet normal 0.0 0.0 -1.0
outer loop
vertex -7.982742078839695 -4.4502596052709e-15 0.0
vertex -7.071067811865475 7.071067811865476 0.0
vertex -7.710736738555749 2.0660856821449913 0.0
endloop
endfacet
facet normal 0.0 0.0 -1.0
outer loop
vertex -7.710736738555749 2.0660856821449913 0.0
vertex -7.071067811865475 7.071067811865476 0.0
vertex -6.913257432134174 3.9913710394198545 0.0
endloop
endfacet
facet normal 0.0 0.0 -1.0
outer loop
vertex -6.913257432134174 3.9913710394198545 0.0
vertex -7.071067811865475 7.071067811865476 0.0
vertex -4.999999999999999 8.660254037844387 0.0
endloop
endfacet
facet normal 0.0 0.0 -1.0
outer loop
vertex -6.913257432134174 3.9913710394198545 0.0
vertex -4.999999999999999 8.660254037844387 0.0
vertex -5.6446510564107415 5.64465105641075 0.0
endloop
endfacet
facet normal 0.0 0.0 -1.0
outer loop
vertex -5.6446510564107415 5.64465105641075 0.0
vertex -4.999999999999999 8.660254037844387 0.0
vertex -3.9913710394198456 6.913257432134177 0.0
endloop
endfacet
facet normal 0.0 0.0 -1.0
outer loop
vertex -3.9913710394198456 6.913257432134177 0.0
vertex -4.999999999999999 8.660254037844387 0.0
vertex -2.5881904510252074 9.659258262890683 0.0
endloop
endfacet
facet normal 0.0 0.0 -1.0
outer loop
vertex -3.9913710394198456 6.913257432134177 0.0
vertex -2.5881904510252074 9.659258262890683 0.0
vertex -2.0660856821450038 7.710736738555745 0.0
endloop
endfacet
facet normal 0.0 0.0 -1.0
outer loop
vertex -2.0660856821450038 7.710736738555745 0.0
vertex -2.5881904510252074 9.659258262890683 0.0
vertex 0.0 10.0 0.0
endloop
endfacet
facet normal 0.0 0.0 -1.0
outer loop
vertex -2.0660856821450038 7.710736738555745 0.0
vertex 0.0 10.0 0.0
vertex 1.8506030041720577e-15 7.982742078839695 0.0
endloop
endfacet
facet normal 0.0 0.0 -1.0
outer loop
vertex 1.8506030041720577e-15 7.982742078839695 0.0
vertex 0.0 10.0 0.0
vertex 2.588190451025216 9.659258262890681 0.0
endloop
endfacet
facet normal 0.0 0.0 -1.0
outer loop
vertex 1.8506030041720577e-15 7.982742078839695 0.0
vertex 2.588190451025216 9.659258262890681 0.0
vertex 2.066085682145006 7.710736738555745 0.0
endloop
endfacet
facet normal 0.0 0.0 -1.0
outer loop
vertex 2.066085682145006 7.710736738555745 0.0
vertex 2.588190451025216 9.659258262890681 0.0
vertex 3.9913710394198474 6.913257432134174 0.0
endloop
endfacet
facet normal 0.0 0.0 -1.0
outer loop
vertex 3.9913710394198474 6.913257432134174 0.0
vertex 2.588190451025216 9.659258262890681 0.0
vertex 5.000000000000004 8.660254037844384 0.0
endloop
endfacet
facet normal 0.0 0.0 -1.0
outer loop
vertex 3.9913710394198474 6.913257432134174 0.0
vertex 5.000000000000004 8.660254037844384 0.0
vertex 5.644651056410748 5.644651056410742 0.0
endloop
endfacet
facet normal 0.0 0.0 -1.0
outer loop
vertex 5.644651056410748 5.644651056410742 0.0
vertex 5.000000000000004 8.660254037844384 0.0
vertex 7.071067811865477 7.071067811865473 0.0
endloop
endfacet
facet normal 0.0 0.0 -1.0
outer loop
vertex 5.644651056410748 5.644651056410742 0.0
vertex 7.071067811865477 7.071067811865473 0.0
vertex 6.913257432134178 3.9913710394198407 0.0
endloop
endfacet
facet normal 0.0 0.0 -1.0
outer loop
vertex 6.913257432134178 3.9913710394198407 0.0
vertex 7.071067811865477 7.071067811865473 0.0
vertex 7.710736738555747 2.066085682144999 0.0
endloop
endfacet
facet normal 0.0 0.0 -1.0
outer loop
vertex 7.710736738555747 2.066085682144999 0.0
vertex 7.071067811865477 7.071067811865473 0.0
vertex 8.66025403784439 4.999999999999993 0.0
endloop
endfacet
facet normal 0.0 0.0 -1.0
outer loop
vertex 7.710736738555747 2.066085682144999 0.0
vertex 8.66025403784439 4.999999999999993 0.0
vertex 7.982742078839695 -1.1015494072452725e-15 0.0
endloop
endfacet
facet normal 0.0 0.0 -1.0
outer loop
vertex 7.982742078839695 -1.1015494072452725e-15 0.0
vertex 8.66025403784439 4.999999999999993 0.0
vertex 8.660254037844384 -5.000000000000004 0.0
endloop
endfacet
facet normal 0.0 0.0 -1.0
outer loop
vertex 8.660254037844384 -5.000000000000004 0.0
vertex 8.66025403784439 4.999999999999993 0.0
vertex 9.659258262890681 -2.5881904510252154 0.0
endloop
endfacet
facet normal 0.0 0.0 -1.0
outer loop
vertex 9.659258262890681 -2.5881904510252154 0.0
vertex 8.66025403784439 4.999999999999993 0.0
vertex 9.659258262890685 2.588190451025203 0.0
endloop
endfacet
facet normal 0.0 0.0 -1.0
outer loop
vertex 9.659258262890681 -2.5881904510252154 0.0
vertex 9.659258262890685 2.588190451025203 0.0
vertex 10.0 -1.8369701987210296e-15 0.0
endloop
endfacet
facet normal 0.0 0.0 -1.0
outer loop
vertex -9.659258262890683 2.5881904510252096 0.0
vertex -9.659258262890683 -2.588190451025206 0.0
vertex -10.0 6.123233995736766e-16 0.0
endloop
endfacet
facet normal 0.0 0.0 -1.0
outer loop
vertex -9.659258262890683 -2.588190451025206 0.0
vertex -9.659258262890683 2.5881904510252096 0.0
vertex -8.660254037844386 5.000000000000002 0.0
endloop
endfacet
facet normal 0.0 0.0 -1.0
outer loop
vertex -9.659258262890683 -2.588190451025206 0.0
vertex -8.660254037844386 5.000000000000002 0.0
vertex -8.660254037844387 -4.999999999999998 0.0
endloop
endfacet
facet normal 0.0 0.0 -1.0
outer loop
vertex -8.660254037844387 -4.999999999999998 0.0
vertex -8.660254037844386 5.000000000000002 0.0
vertex -7.071067811865476 -7.071067811865475 0.0
endloop
endfacet
facet normal 0.0 0.0 -1.0
outer loop
vertex -7.071067811865476 -7.071067811865475 0.0
vertex -8.660254037844386 5.000000000000002 0.0
vertex -7.982742078839695 -4.4502596052709e-15 0.0
endloop
endfacet
facet normal 0.0 0.0 -1.0
outer loop
vertex -7.071067811865476 -7.071067811865475 0.0
vertex -7.982742078839695 -4.4502596052709e-15 0.0
vertex -7.710736738555747 -2.066085682145002 0.0
endloop
endfacet
facet normal 0.0 0.0 -1.0
outer loop
vertex -7.071067811865476 -7.071067811865475 0.0
vertex -7.710736738555747 -2.066085682145002 0.0
vertex -6.91325743213418 -3.9913710394198407 0.0
endloop
endfacet
facet normal 0.0 0.0 -1.0
outer loop
vertex -7.071067811865476 -7.071067811865475 0.0
vertex -6.91325743213418 -3.9913710394198407 0.0
vertex -5.0000000000000036 -8.660254037844386 0.0
endloop
endfacet
facet normal 0.0 0.0 -1.0
outer loop
vertex -5.0000000000000036 -8.660254037844386 0.0
vertex -6.91325743213418 -3.9913710394198407 0.0
vertex -5.644651056410746 -5.644651056410745 0.0
endloop
endfacet
facet normal 0.0 0.0 -1.0
outer loop
vertex -5.0000000000000036 -8.660254037844386 0.0
vertex -5.644651056410746 -5.644651056410745 0.0
vertex -3.9913710394198394 -6.913257432134178 0.0
endloop
endfacet
facet normal 0.0 0.0 -1.0
outer loop
vertex -5.0000000000000036 -8.660254037844386 0.0
vertex -3.9913710394198394 -6.913257432134178 0.0
vertex -2.58819045102521 -9.659258262890683 0.0
endloop
endfacet
facet normal 0.0 0.0 -1.0
outer loop
vertex -2.58819045102521 -9.659258262890683 0.0
vertex -3.9913710394198394 -6.913257432134178 0.0
vertex -2.0660856821449984 -7.710736738555747 0.0
endloop
endfacet
facet normal 0.0 0.0 -1.0
outer loop
vertex -2.58819045102521 -9.659258262890683 0.0
vertex -2.0660856821449984 -7.710736738555747 0.0
vertex -1.2246467991473533e-15 -10.0 0.0
endloop
endfacet
facet normal 0.0 0.0 -1.0
outer loop
vertex -1.2246467991473533e-15 -10.0 0.0
vertex -2.0660856821449984 -7.710736738555747 0.0
vertex 6.3889865620225805e-15 -7.982742078839695 0.0
endloop
endfacet
facet normal 0.0 0.0 -1.0
outer loop
vertex -1.2246467991473533e-15 -10.0 0.0
vertex 6.3889865620225805e-15 -7.982742078839695 0.0
vertex 2.5881904510252034 -9.659258262890685 0.0
endloop
endfacet
facet normal 0.0 0.0 -1.0
outer loop
vertex 2.5881904510252034 -9.659258262890685 0.0
vertex 6.3889865620225805e-15 -7.982742078839695 0.0
vertex 2.0660856821449953 -7.710736738555749 0.0
endloop
endfacet
facet normal 0.0 0.0 -1.0
outer loop
vertex 2.5881904510252034 -9.659258262890685 0.0
vertex 2.0660856821449953 -7.710736738555749 0.0
vertex 3.9913710394198487 -6.913257432134175 0.0
endloop
endfacet
facet normal 0.0 0.0 -1.0
outer loop
vertex 2.5881904510252034 -9.659258262890685 0.0
vertex 3.9913710394198487 -6.913257432134175 0.0
vertex 4.999999999999997 -8.660254037844389 0.0
endloop
endfacet
facet normal 0.0 0.0 -1.0
outer loop
vertex 4.999999999999997 -8.660254037844389 0.0
vertex 3.9913710394198487 -6.913257432134175 0.0
vertex 5.644651056410739 -5.644651056410753 0.0
endloop
endfacet
facet normal 0.0 0.0 -1.0
outer loop
vertex 4.999999999999997 -8.660254037844389 0.0
vertex 5.644651056410739 -5.644651056410753 0.0
vertex 7.071067811865472 -7.071067811865479 0.0
endloop
endfacet
facet normal 0.0 0.0 -1.0
outer loop
vertex 7.071067811865472 -7.071067811865479 0.0
vertex 5.644651056410739 -5.644651056410753 0.0
vertex 6.91325743213417 -3.9913710394198594 0.0
endloop
endfacet
facet normal 0.0 0.0 -1.0
outer loop
vertex 7.071067811865472 -7.071067811865479 0.0
vertex 6.91325743213417 -3.9913710394198594 0.0
vertex 7.710736738555744 -2.066085682145015 0.0
endloop
endfacet
facet normal 0.0 0.0 -1.0
outer loop
vertex 7.071067811865472 -7.071067811865479 0.0
vertex 7.710736738555744 -2.066085682145015 0.0
vertex 8.660254037844384 -5.000000000000004 0.0
endloop
endfacet
facet normal 0.0 0.0 -1.0
outer loop
vertex 8.660254037844384 -5.000000000000004 0.0
vertex 7.710736738555744 -2.066085682145015 0.0
vertex 7.982742078839695 -1.1015494072452725e-15 0.0
endloop
endfacet
facet normal 0.0 0.0 1.0
outer loop
vertex -1.8352590699492333 -0.49175618569479196 25.0
vertex -1.8352590699492333 0.49175618569478685 25.0
vertex -1.9000000000000028 -2.7115226836172852e-15 25.0
endloop
endfacet
facet normal 0.0 0.0 1.0
outer loop
vertex -1.8352590699492333 0.49175618569478685 25.0
vertex -1.8352590699492333 -0.49175618569479196 25.0
vertex -1.6454482671904374 -0.9500000000000023 25.0
endloop
endfacet
facet normal 0.0 0.0 1.0
outer loop
vertex -1.8352590699492333 0.49175618569478685 25.0
vertex -1.6454482671904374 -0.9500000000000023 25.0
vertex -1.6454482671904374 0.949999999999998 25.0
endloop
endfacet
facet normal 0.0 0.0 1.0
outer loop
vertex -1.6454482671904374 0.949999999999998 25.0
vertex -1.6454482671904374 -0.9500000000000023 25.0
vertex -1.3435028842544436 -1.3435028842544436 25.0
endloop
endfacet
facet normal 0.0 0.0 1.0
outer loop
vertex -1.6454482671904374 0.949999999999998 25.0
vertex -1.3435028842544436 -1.3435028842544436 25.0
vertex -1.5167209949795442 -3.673413454537755e-15 25.0
endloop
endfacet
facet normal 0.0 0.0 1.0
outer loop
vertex -1.5167209949795442 -3.673413454537755e-15 25.0
vertex -1.3435028842544436 -1.3435028842544436 25.0
vertex -1.4650399803255942 -0.39255627960755335 25.0
endloop
endfacet
facet normal 0.0 0.0 1.0
outer loop
vertex -1.4650399803255942 -0.39255627960755335 25.0
vertex -1.3435028842544436 -1.3435028842544436 25.0
vertex -1.3135189121054969 -0.7583604974897725 25.0
endloop
endfacet
facet normal 0.0 0.0 1.0
outer loop
vertex -1.3135189121054969 -0.7583604974897725 25.0
vertex -1.3435028842544436 -1.3435028842544436 25.0
vertex -0.9500000000000031 -1.645448267190437 25.0
endloop
endfacet
facet normal 0.0 0.0 1.0
outer loop
vertex -1.3135189121054969 -0.7583604974897725 25.0
vertex -0.9500000000000031 -1.645448267190437 25.0
vertex -1.0724837007180432 -1.0724837007180432 25.0
endloop
endfacet
facet normal 0.0 0.0 1.0
outer loop
vertex -1.0724837007180432 -1.0724837007180432 25.0
vertex -0.9500000000000031 -1.645448267190437 25.0
vertex -0.7583604974897725 -1.3135189121054969 25.0
endloop
endfacet
facet normal 0.0 0.0 1.0
outer loop
vertex -0.7583604974897725 -1.3135189121054969 25.0
vertex -0.9500000000000031 -1.645448267190437 25.0
vertex -0.49175618569479257 -1.8352590699492333 25.0
endloop
endfacet
facet normal 0.0 0.0 1.0
outer loop
vertex -0.7583604974897725 -1.3135189121054969 25.0
vertex -0.49175618569479257 -1.8352590699492333 25.0
vertex -0.3925562796075525 -1.4650399803255942 25.0
endloop
endfacet
facet normal 0.0 0.0 1.0
outer loop
vertex -0.3925562796075525 -1.4650399803255942 25.0
vertex -0.49175618569479257 -1.8352590699492333 25.0
vertex -3.0605470213742795e-15 -1.9000000000000028 25.0
endloop
endfacet
facet normal 0.0 0.0 1.0
outer loop
vertex -0.3925562796075525 -1.4650399803255942 25.0
vertex -3.0605470213742795e-15 -1.9000000000000028 25.0
vertex -1.6139566827519915e-15 -1.5167209949795442 25.0
endloop
endfacet
facet normal 0.0 0.0 1.0
outer loop
vertex -1.6139566827519915e-15 -1.5167209949795442 25.0
vertex -3.0605470213742795e-15 -1.9000000000000028 25.0
vertex 0.4917561856947857 -1.8352590699492335 25.0
endloop
endfacet
facet normal 0.0 0.0 1.0
outer loop
vertex -1.6139566827519915e-15 -1.5167209949795442 25.0
vertex 0.4917561856947857 -1.8352590699492335 25.0
vertex 0.3925562796075466 -1.4650399803255942 25.0
endloop
endfacet
facet normal 0.0 0.0 1.0
outer loop
vertex 0.3925562796075466 -1.4650399803255942 25.0
vertex 0.4917561856947857 -1.8352590699492335 25.0
vertex 0.7583604974897682 -1.3135189121054966 25.0
endloop
endfacet
facet normal 0.0 0.0 1.0
outer loop
vertex 0.7583604974897682 -1.3135189121054966 25.0
vertex 0.4917561856947857 -1.8352590699492335 25.0
vertex 0.9499999999999963 -1.645448267190438 25.0
endloop
endfacet
facet normal 0.0 0.0 1.0
outer loop
vertex 0.7583604974897682 -1.3135189121054966 25.0
vertex 0.9499999999999963 -1.645448267190438 25.0
vertex 1.0724837007180374 -1.072483700718045 25.0
endloop
endfacet
facet normal 0.0 0.0 1.0
outer loop
vertex 1.0724837007180374 -1.072483700718045 25.0
vertex 0.9499999999999963 -1.645448267190438 25.0
vertex 1.3435028842544379 -1.343502884254445 25.0
endloop
endfacet
facet normal 0.0 0.0 1.0
outer loop
vertex 1.0724837007180374 -1.072483700718045 25.0
vertex 1.3435028842544379 -1.343502884254445 25.0
vertex 1.3135189121054915 -0.7583604974897763 25.0
endloop
endfacet
facet normal 0.0 0.0 1.0
outer loop
vertex 1.3135189121054915 -0.7583604974897763 25.0
vertex 1.3435028842544379 -1.343502884254445 25.0
vertex 1.4650399803255887 -0.3925562796075557 25.0
endloop
endfacet
facet normal 0.0 0.0 1.0
outer loop
vertex 1.4650399803255887 -0.3925562796075557 25.0
vertex 1.3435028842544379 -1.343502884254445 25.0
vertex 1.6454482671904307 -0.9500000000000031 25.0
endloop
endfacet
facet normal 0.0 0.0 1.0
outer loop
vertex 1.4650399803255887 -0.3925562796075557 25.0
vertex 1.6454482671904307 -0.9500000000000031 25.0
vertex 1.5167209949795397 -3.037158516912884e-15 25.0
endloop
endfacet
facet normal 0.0 0.0 1.0
outer loop
vertex -1.5167209949795442 -3.673413454537755e-15 25.0
vertex -1.3435028842544436 1.3435028842544383 25.0
vertex -1.6454482671904374 0.949999999999998 25.0
endloop
endfacet
facet normal 0.0 0.0 1.0
outer loop
vertex -1.3435028842544436 1.3435028842544383 25.0
vertex -1.5167209949795442 -3.673413454537755e-15 25.0
vertex -1.4650399803255942 0.3925562796075454 25.0
endloop
endfacet
facet normal 0.0 0.0 1.0
outer loop
vertex -1.3435028842544436 1.3435028842544383 25.0
vertex -1.4650399803255942 0.3925562796075454 25.0
vertex -1.3135189121054966 0.7583604974897691 25.0
endloop
endfacet
facet normal 0.0 0.0 1.0
outer loop
vertex -1.3435028842544436 1.3435028842544383 25.0
vertex -1.3135189121054966 0.7583604974897691 25.0
vertex -0.9500000000000028 1.645448267190431 25.0
endloop
endfacet
facet normal 0.0 0.0 1.0
outer loop
vertex -0.9500000000000028 1.645448267190431 25.0
vertex -1.3135189121054966 0.7583604974897691 25.0
vertex -1.0724837007180428 1.0724837007180392 25.0
endloop
endfacet
facet normal 0.0 0.0 1.0
outer loop
vertex -0.9500000000000028 1.645448267190431 25.0
vertex -1.0724837007180428 1.0724837007180392 25.0
vertex -0.7583604974897737 1.3135189121054915 25.0
endloop
endfacet
facet normal 0.0 0.0 1.0
outer loop
vertex -0.9500000000000028 1.645448267190431 25.0
vertex -0.7583604974897737 1.3135189121054915 25.0
vertex -0.49175618569479196 1.8352590699492268 25.0
endloop
endfacet
facet normal 0.0 0.0 1.0
outer loop
vertex -0.49175618569479196 1.8352590699492268 25.0
vertex -0.7583604974897737 1.3135189121054915 25.0
vertex -0.3925562796075536 1.4650399803255896 25.0
endloop
endfacet
facet normal 0.0 0.0 1.0
outer loop
vertex -0.49175618569479196 1.8352590699492268 25.0
vertex -0.3925562796075536 1.4650399803255896 25.0
vertex -2.827864129536284e-15 1.8999999999999968 25.0
endloop
endfacet
facet normal 0.0 0.0 1.0
outer loop
vertex -2.827864129536284e-15 1.8999999999999968 25.0
vertex -0.3925562796075536 1.4650399803255896 25.0
vertex -2.476249558743593e-15 1.5167209949795397 25.0
endloop
endfacet
facet normal 0.0 0.0 1.0
outer loop
vertex -2.827864129536284e-15 1.8999999999999968 25.0
vertex -2.476249558743593e-15 1.5167209949795397 25.0
vertex 0.4917561856947878 1.8352590699492257 25.0
endloop
endfacet
facet normal 0.0 0.0 1.0
outer loop
vertex 0.4917561856947878 1.8352590699492257 25.0
vertex -2.476249558743593e-15 1.5167209949795397 25.0
vertex 0.3925562796075484 1.4650399803255896 25.0
endloop
endfacet
facet normal 0.0 0.0 1.0
outer loop
vertex 0.4917561856947878 1.8352590699492257 25.0
vertex 0.3925562796075484 1.4650399803255896 25.0
vertex 0.7583604974897682 1.3135189121054915 25.0
endloop
endfacet
facet normal 0.0 0.0 1.0
outer loop
vertex 0.4917561856947878 1.8352590699492257 25.0
vertex 0.7583604974897682 1.3135189121054915 25.0
vertex 0.9499999999999981 1.6454482671904307 25.0
endloop
endfacet
facet normal 0.0 0.0 1.0
outer loop
vertex 0.9499999999999981 1.6454482671904307 25.0
vertex 0.7583604974897682 1.3135189121054915 25.0
vertex 1.0724837007180383 1.0724837007180381 25.0
endloop
endfacet
facet normal 0.0 0.0 1.0
outer loop
vertex 0.9499999999999981 1.6454482671904307 25.0
vertex 1.0724837007180383 1.0724837007180381 25.0
vertex 1.3435028842544385 1.3435028842544379 25.0
endloop
endfacet
facet normal 0.0 0.0 1.0
outer loop
vertex 1.3435028842544385 1.3435028842544379 25.0
vertex 1.0724837007180383 1.0724837007180381 25.0
vertex 1.3135189121054915 0.7583604974897665 25.0
endloop
endfacet
facet normal 0.0 0.0 1.0
outer loop
vertex 1.3435028842544385 1.3435028842544379 25.0
vertex 1.3135189121054915 0.7583604974897665 25.0
vertex 1.46503998032559 0.39255627960754713 25.0
endloop
endfacet
facet normal 0.0 0.0 1.0
outer loop
vertex 1.3435028842544385 1.3435028842544379 25.0
vertex 1.46503998032559 0.39255627960754713 25.0
vertex 1.6454482671904325 0.9499999999999957 25.0
endloop
endfacet
facet normal 0.0 0.0 1.0
outer loop
vertex 1.6454482671904325 0.9499999999999957 25.0
vertex 1.46503998032559 0.39255627960754713 25.0
vertex 1.5167209949795397 -3.037158516912884e-15 25.0
endloop
endfacet
facet normal 0.0 0.0 1.0
outer loop
vertex 1.6454482671904325 0.9499999999999957 25.0
vertex 1.5167209949795397 -3.037158516912884e-15 25.0
vertex 1.6454482671904307 -0.9500000000000031 25.0
endloop
endfacet
facet normal 0.0 0.0 1.0
outer loop
vertex 1.6454482671904325 0.9499999999999957 25.0
vertex 1.6454482671904307 -0.9500000000000031 25.0
vertex 1.8352590699492257 -0.49175618569479346 25.0
endloop
endfacet
facet normal 0.0 0.0 1.0
outer loop
vertex 1.6454482671904325 0.9499999999999957 25.0
vertex 1.8352590699492257 -0.49175618569479346 25.0
vertex 1.8352590699492268 0.4917561856947855 25.0
endloop
endfacet
facet normal 0.0 0.0 1.0
outer loop
vertex 1.8352590699492268 0.4917561856947855 25.0
vertex 1.8352590699492257 -0.49175618569479346 25.0
vertex 1.8999999999999968 -3.1768884672932783e-15 25.0
endloop
endfacet
facet normal -0.8384357238034735 -0.4840710908361331 -0.25040111035469015
outer loop
vertex 1.3135189121054915 0.7583604974897665 25.0
vertex 7.710736738555747 2.066085682144999 0.0
vertex 1.46503998032559 0.39255627960754713 25.0
endloop
endfacet
facet normal -0.9351535367970867 -0.25057363498388713 -0.25040111035469015
outer loop
vertex 7.710736738555747 2.066085682144999 0.0
vertex 1.3135189121054915 0.7583604974897665 25.0
vertex 6.913257432134178 3.9913710394198407 0.0
endloop
endfacet
facet normal 0.935153536797087 -0.2505736349838856 -0.25040111035468976
outer loop
vertex -7.710736738555749 2.0660856821449913 0.0
vertex -1.5167209949795442 -3.673413454537755e-15 25.0
vertex -7.982742078839695 -4.4502596052709e-15 0.0
endloop
endfacet
facet normal 0.9681421816722678 1.5704600978481249e-16 -0.25040111035468987
outer loop
vertex -1.5167209949795442 -3.673413454537755e-15 25.0
vertex -7.710736738555749 2.0660856821449913 0.0
vertex -1.4650399803255942 0.3925562796075454 25.0
endloop
endfacet
facet normal -0.6726800991592269 -0.6726800991592282 0.3082255154757044
outer loop
vertex -1.3435028842544436 -1.3435028842544436 25.0
vertex -8.660254037844387 -4.999999999999998 0.0
vertex -7.071067811865476 -7.071067811865475 0.0
endloop
endfacet
facet normal -0.8238615015324495 -0.47565665968472887 0.3082255154757043
outer loop
vertex -8.660254037844387 -4.999999999999998 0.0
vertex -1.3435028842544436 -1.3435028842544436 25.0
vertex -1.6454482671904374 -0.9500000000000023 25.0
endloop
endfacet
facet normal -0.823861501532449 0.47565665968473 0.30822551547570426
outer loop
vertex -1.6454482671904374 0.949999999999998 25.0
vertex -9.659258262890683 2.5881904510252096 0.0
vertex -1.8352590699492333 0.49175618569478685 25.0
endloop
endfacet
facet normal -0.9188981040717397 0.24621800491251347 0.30822551547570426
outer loop
vertex -9.659258262890683 2.5881904510252096 0.0
vertex -1.6454482671904374 0.949999999999998 25.0
vertex -8.660254037844386 5.000000000000002 0.0
endloop
endfacet
facet normal -0.6845799018131962 0.6845799018132018 -0.2504011103546901
outer loop
vertex 1.0724837007180374 -1.072483700718045 25.0
vertex 6.91325743213417 -3.9913710394198594 0.0
vertex 5.644651056410739 -5.644651056410753 0.0
endloop
endfacet
facet normal -0.8384357238034716 0.48407109083613614 -0.25040111035469004
outer loop
vertex 6.91325743213417 -3.9913710394198594 0.0
vertex 1.0724837007180374 -1.072483700718045 25.0
vertex 1.3135189121054915 -0.7583604974897763 25.0
endloop
endfacet
facet normal -0.47565665968472665 0.8238615015324507 0.30822551547570426
outer loop
vertex -0.9500000000000028 1.645448267190431 25.0
vertex -2.5881904510252074 9.659258262890683 0.0
vertex -4.999999999999999 8.660254037844387 0.0
endloop
endfacet
facet normal -0.24621800491251158 0.9188981040717402 0.3082255154757045
outer loop
vertex -2.5881904510252074 9.659258262890683 0.0
vertex -0.9500000000000028 1.645448267190431 25.0
vertex -0.49175618569479196 1.8352590699492268 25.0
endloop
endfacet
facet normal -0.24621800491251156 0.9188981040717402 0.3082255154757044
outer loop
vertex -0.49175618569479196 1.8352590699492268 25.0
vertex 0.0 10.0 0.0
vertex -2.5881904510252074 9.659258262890683 0.0
endloop
endfacet
facet normal 2.1017405958184325e-16 0.9513133193694578 0.3082255154757045
outer loop
vertex 0.0 10.0 0.0
vertex -0.49175618569479196 1.8352590699492268 25.0
vertex -2.827864129536284e-15 1.8999999999999968 25.0
endloop
endfacet
facet normal 0.8384357238034743 -0.4840710908361317 -0.25040111035469
outer loop
vertex -6.913257432134174 3.9913710394198545 0.0
vertex -1.0724837007180428 1.0724837007180392 25.0
vertex -1.3135189121054966 0.7583604974897691 25.0
endloop
endfacet
facet normal 0.6845799018131988 -0.684579901813199 -0.25040111035469
outer loop
vertex -1.0724837007180428 1.0724837007180392 25.0
vertex -6.913257432134174 3.9913710394198545 0.0
vertex -5.6446510564107415 5.64465105641075 0.0
endloop
endfacet
facet normal 0.935153536797087 -0.2505736349838856 -0.25040111035468976
outer loop
vertex -7.710736738555749 2.0660856821449913 0.0
vertex -1.3135189121054966 0.7583604974897691 25.0
vertex -1.4650399803255942 0.3925562796075454 25.0
endloop
endfacet
facet normal 0.8384357238034743 -0.48407109083613165 -0.2504011103546899
outer loop
vertex -1.3135189121054966 0.7583604974897691 25.0
vertex -7.710736738555749 2.0660856821449913 0.0
vertex -6.913257432134174 3.9913710394198545 0.0
endloop
endfacet
facet normal -0.6845799018131979 -0.6845799018131999 -0.25040111035469026
outer loop
vertex 1.0724837007180383 1.0724837007180381 25.0
vertex 6.913257432134178 3.9913710394198407 0.0
vertex 1.3135189121054915 0.7583604974897665 25.0
endloop
endfacet
facet normal -0.8384357238034735 -0.4840710908361331 -0.25040111035469015
outer loop
vertex 6.913257432134178 3.9913710394198407 0.0
vertex 1.0724837007180383 1.0724837007180381 25.0
vertex 5.644651056410748 5.644651056410742 0.0
endloop
endfacet
facet normal -0.8238615015324494 -0.4756566596847288 0.30822551547570426
outer loop
vertex -1.6454482671904374 -0.9500000000000023 25.0
vertex -9.659258262890683 -2.588190451025206 0.0
vertex -8.660254037844387 -4.999999999999998 0.0
endloop
endfacet
facet normal -0.9188981040717402 -0.24621800491251147 0.30822551547570415
outer loop
vertex -9.659258262890683 -2.588190451025206 0.0
vertex -1.6454482671904374 -0.9500000000000023 25.0
vertex -1.8352590699492333 -0.49175618569479196 25.0
endloop
endfacet
facet normal -0.6726800991592259 0.6726800991592289 0.3082255154757042
outer loop
vertex -1.3435028842544436 1.3435028842544383 25.0
vertex -4.999999999999999 8.660254037844387 0.0
vertex -7.071067811865475 7.071067811865476 0.0
endloop
endfacet
facet normal -0.47565665968472665 0.8238615015324507 0.30822551547570426
outer loop
vertex -4.999999999999999 8.660254037844387 0.0
vertex -1.3435028842544436 1.3435028842544383 25.0
vertex -0.9500000000000028 1.645448267190431 25.0
endloop
endfacet
facet normal -0.48407109083613165 0.8384357238034744 -0.25040111035469004
outer loop
vertex 0.7583604974897682 -1.3135189121054966 25.0
vertex 5.644651056410739 -5.644651056410753 0.0
vertex 3.9913710394198487 -6.913257432134175 0.0
endloop
endfacet
facet normal -0.6845799018131962 0.6845799018132018 -0.25040111035469004
outer loop
vertex 5.644651056410739 -5.644651056410753 0.0
vertex 0.7583604974897682 -1.3135189121054966 25.0
vertex 1.0724837007180374 -1.072483700718045 25.0
endloop
endfacet
facet normal -0.47565665968472887 -0.8238615015324495 0.3082255154757043
outer loop
vertex -0.9500000000000031 -1.645448267190437 25.0
vertex -7.071067811865476 -7.071067811865475 0.0
vertex -5.0000000000000036 -8.660254037844386 0.0
endloop
endfacet
facet normal -0.6726800991592268 -0.6726800991592281 0.3082255154757044
outer loop
vertex -7.071067811865476 -7.071067811865475 0.0
vertex -0.9500000000000031 -1.645448267190437 25.0
vertex -1.3435028842544436 -1.3435028842544436 25.0
endloop
endfacet
facet normal 0.9188981040717399 -0.246218004912513 0.3082255154757043
outer loop
vertex 9.659258262890681 -2.5881904510252154 0.0
vertex 1.6454482671904307 -0.9500000000000031 25.0
vertex 8.660254037844384 -5.000000000000004 0.0
endloop
endfacet
facet normal 0.823861501532449 -0.4756566596847298 0.30822551547570426
outer loop
vertex 1.6454482671904307 -0.9500000000000031 25.0
vertex 9.659258262890681 -2.5881904510252154 0.0
vertex 1.8352590699492257 -0.49175618569479346 25.0
endloop
endfacet
facet normal 0.2462180049125116 -0.9188981040717403 0.30822551547570426
outer loop
vertex 0.4917561856947857 -1.8352590699492335 25.0
vertex -1.2246467991473533e-15 -10.0 0.0
vertex 2.5881904510252034 -9.659258262890685 0.0
endloop
endfacet
facet normal 5.482801554308954e-17 -0.9513133193694578 0.30822551547570426
outer loop
vertex -1.2246467991473533e-15 -10.0 0.0
vertex 0.4917561856947857 -1.8352590699492335 25.0
vertex -3.0605470213742795e-15 -1.9000000000000028 25.0
endloop
endfacet
facet normal 2.257185753519327e-16 0.9513133193694578 0.3082255154757044
outer loop
vertex -2.827864129536284e-15 1.8999999999999968 25.0
vertex 2.588190451025216 9.659258262890681 0.0
vertex 0.0 10.0 0.0
endloop
endfacet
facet normal 0.24621800491251308 0.9188981040717398 0.3082255154757046
outer loop
vertex 2.588190451025216 9.659258262890681 0.0
vertex -2.827864129536284e-15 1.8999999999999968 25.0
vertex 0.4917561856947878 1.8352590699492257 25.0
endloop
endfacet
facet normal 0.9513133193694578 -3.746581062111119e-16 0.3082255154757044
outer loop
vertex 10.0 -1.8369701987210296e-15 0.0
vertex 1.8352590699492257 -0.49175618569479346 25.0
vertex 9.659258262890681 -2.5881904510252154 0.0
endloop
endfacet
facet normal 0.9188981040717399 -0.24621800491251294 0.3082255154757043
outer loop
vertex 1.8352590699492257 -0.49175618569479346 25.0
vertex 10.0 -1.8369701987210296e-15 0.0
vertex 1.8999999999999968 -3.1768884672932783e-15 25.0
endloop
endfacet
facet normal 0.6726800991592277 -0.6726800991592272 0.3082255154757044
outer loop
vertex 1.3435028842544379 -1.343502884254445 25.0
vertex 4.999999999999997 -8.660254037844389 0.0
vertex 7.071067811865472 -7.071067811865479 0.0
endloop
endfacet
facet normal 0.47565665968472876 -0.8238615015324495 0.3082255154757046
outer loop
vertex 4.999999999999997 -8.660254037844389 0.0
vertex 1.3435028842544379 -1.343502884254445 25.0
vertex 0.9499999999999963 -1.645448267190438 25.0
endloop
endfacet
facet normal -0.6845799018131979 -0.6845799018131999 -0.25040111035469026
outer loop
vertex 1.0724837007180383 1.0724837007180381 25.0
vertex 3.9913710394198474 6.913257432134174 0.0
vertex 5.644651056410748 5.644651056410742 0.0
endloop
endfacet
facet normal -0.4840710908361319 -0.8384357238034741 -0.25040111035469
outer loop
vertex 3.9913710394198474 6.913257432134174 0.0
vertex 1.0724837007180383 1.0724837007180381 25.0
vertex 0.7583604974897682 1.3135189121054915 25.0
endloop
endfacet
facet normal -0.2462180049125129 -0.9188981040717398 0.3082255154757042
outer loop
vertex -0.49175618569479257 -1.8352590699492333 25.0
vertex -5.0000000000000036 -8.660254037844386 0.0
vertex -2.58819045102521 -9.659258262890683 0.0
endloop
endfacet
facet normal -0.4756566596847289 -0.8238615015324494 0.3082255154757043
outer loop
vertex -5.0000000000000036 -8.660254037844386 0.0
vertex -0.49175618569479257 -1.8352590699492333 25.0
vertex -0.9500000000000031 -1.645448267190437 25.0
endloop
endfacet
facet normal 0.9513133193694578 -3.746581062111119e-16 0.3082255154757044
outer loop
vertex 10.0 -1.8369701987210296e-15 0.0
vertex 1.8352590699492268 0.4917561856947855 25.0
vertex 1.8999999999999968 -3.1768884672932783e-15 25.0
endloop
endfacet
facet normal 0.9188981040717402 0.2462180049125111 0.3082255154757044
outer loop
vertex 1.8352590699492268 0.4917561856947855 25.0
vertex 10.0 -1.8369701987210296e-15 0.0
vertex 9.659258262890685 2.588190451025203 0.0
endloop
endfacet
facet normal 0.4840710908361328 -0.8384357238034738 -0.2504011103546901
outer loop
vertex -0.7583604974897737 1.3135189121054915 25.0
vertex -5.6446510564107415 5.64465105641075 0.0
vertex -3.9913710394198456 6.913257432134177 0.0
endloop
endfacet
facet normal 0.6845799018131987 -0.684579901813199 -0.25040111035469004
outer loop
vertex -5.6446510564107415 5.64465105641075 0.0
vertex -0.7583604974897737 1.3135189121054915 25.0
vertex -1.0724837007180428 1.0724837007180392 25.0
endloop
endfacet
facet normal 0.2505736349838868 -0.9351535367970867 -0.25040111035469
outer loop
vertex -0.3925562796075536 1.4650399803255896 25.0
vertex -3.9913710394198456 6.913257432134177 0.0
vertex -2.0660856821450038 7.710736738555745 0.0
endloop
endfacet
facet normal 0.48407109083613276 -0.8384357238034738 -0.2504011103546901
outer loop
vertex -3.9913710394198456 6.913257432134177 0.0
vertex -0.3925562796075536 1.4650399803255896 25.0
vertex -0.7583604974897737 1.3135189121054915 25.0
endloop
endfacet
facet normal -0.9351535367970863 0.25057363498388857 -0.25040111035469015
outer loop
vertex 1.4650399803255887 -0.3925562796075557 25.0
vertex 7.982742078839695 -1.1015494072452725e-15 0.0
vertex 7.710736738555744 -2.066085682145015 0.0
endloop
endfacet
facet normal -0.9681421816722678 6.275989992632514e-16 -0.25040111035469015
outer loop
vertex 7.982742078839695 -1.1015494072452725e-15 0.0
vertex 1.4650399803255887 -0.3925562796075557 25.0
vertex 1.5167209949795397 -3.037158516912884e-15 25.0
endloop
endfacet
facet normal 0.823861501532449 -0.47565665968472987 0.30822551547570426
outer loop
vertex 8.660254037844384 -5.000000000000004 0.0
vertex 1.3435028842544379 -1.343502884254445 25.0
vertex 7.071067811865472 -7.071067811865479 0.0
endloop
endfacet
facet normal 0.6726800991592277 -0.6726800991592272 0.3082255154757044
outer loop
vertex 1.3435028842544379 -1.343502884254445 25.0
vertex 8.660254037844384 -5.000000000000004 0.0
vertex 1.6454482671904307 -0.9500000000000031 25.0
endloop
endfacet
facet normal 0.246218004912513 0.9188981040717398 0.30822551547570454
outer loop
vertex 0.4917561856947878 1.8352590699492257 25.0
vertex 5.000000000000004 8.660254037844384 0.0
vertex 2.588190451025216 9.659258262890681 0.0
endloop
endfacet
facet normal 0.4756566596847286 0.8238615015324495 0.3082255154757045
outer loop
vertex 5.000000000000004 8.660254037844384 0.0
vertex 0.4917561856947878 1.8352590699492257 25.0
vertex 0.9499999999999981 1.6454482671904307 25.0
endloop
endfacet
facet normal 0.47565665968472864 0.8238615015324496 0.3082255154757045
outer loop
vertex 0.9499999999999981 1.6454482671904307 25.0
vertex 7.071067811865477 7.071067811865473 0.0
vertex 5.000000000000004 8.660254037844384 0.0
endloop
endfacet
facet normal 0.672680099159227 0.6726800991592277 0.3082255154757046
outer loop
vertex 7.071067811865477 7.071067811865473 0.0
vertex 0.9499999999999981 1.6454482671904307 25.0
vertex 1.3435028842544385 1.3435028842544379 25.0
endloop
endfacet
facet normal 0.47565665968472864 -0.8238615015324495 0.30822551547570454
outer loop
vertex 0.9499999999999963 -1.645448267190438 25.0
vertex 2.5881904510252034 -9.659258262890685 0.0
vertex 4.999999999999997 -8.660254037844389 0.0
endloop
endfacet
facet normal 0.2462180049125116 -0.9188981040717402 0.30822551547570426
outer loop
vertex 2.5881904510252034 -9.659258262890685 0.0
vertex 0.9499999999999963 -1.645448267190438 25.0
vertex 0.4917561856947857 -1.8352590699492335 25.0
endloop
endfacet
facet normal 0.4840710908361324 0.838435723803474 -0.2504011103546897
outer loop
vertex -0.7583604974897725 -1.3135189121054969 25.0
vertex -2.0660856821449984 -7.710736738555747 0.0
vertex -3.9913710394198394 -6.913257432134178 0.0
endloop
endfacet
facet normal 0.2505736349838867 0.9351535367970869 -0.25040111035468987
outer loop
vertex -2.0660856821449984 -7.710736738555747 0.0
vertex -0.7583604974897725 -1.3135189121054969 25.0
vertex -0.3925562796075525 -1.4650399803255942 25.0
endloop
endfacet
facet normal 0.2505736349838866 0.9351535367970868 -0.2504011103546898
outer loop
vertex -0.3925562796075525 -1.4650399803255942 25.0
vertex 6.3889865620225805e-15 -7.982742078839695 0.0
vertex -2.0660856821449984 -7.710736738555747 0.0
endloop
endfacet
facet normal -3.365385938078304e-16 0.9681421816722677 -0.2504011103546898
outer loop
vertex 6.3889865620225805e-15 -7.982742078839695 0.0
vertex -0.3925562796075525 -1.4650399803255942 25.0
vertex -1.6139566827519915e-15 -1.5167209949795442 25.0
endloop
endfacet
facet normal -0.4840710908361321 -0.8384357238034742 -0.25040111035469004
outer loop
vertex 0.7583604974897682 1.3135189121054915 25.0
vertex 2.066085682145006 7.710736738555745 0.0
vertex 3.9913710394198474 6.913257432134174 0.0
endloop
endfacet
facet normal -0.25057363498388785 -0.9351535367970865 -0.2504011103546901
outer loop
vertex 2.066085682145006 7.710736738555745 0.0
vertex 0.7583604974897682 1.3135189121054915 25.0
vertex 0.3925562796075484 1.4650399803255896 25.0
endloop
endfacet
facet normal -0.6726800991592259 0.6726800991592289 0.3082255154757042
outer loop
vertex -1.3435028842544436 1.3435028842544383 25.0
vertex -8.660254037844386 5.000000000000002 0.0
vertex -1.6454482671904374 0.949999999999998 25.0
endloop
endfacet
facet normal -0.8238615015324489 0.47565665968473 0.30822551547570426
outer loop
vertex -8.660254037844386 5.000000000000002 0.0
vertex -1.3435028842544436 1.3435028842544383 25.0
vertex -7.071067811865475 7.071067811865476 0.0
endloop
endfacet
facet normal 0.6845799018131985 0.6845799018131994 -0.25040111035468987
outer loop
vertex -1.0724837007180432 -1.0724837007180432 25.0
vertex -3.9913710394198394 -6.913257432134178 0.0
vertex -5.644651056410746 -5.644651056410745 0.0
endloop
endfacet
facet normal 0.4840710908361324 0.838435723803474 -0.25040111035468976
outer loop
vertex -3.9913710394198394 -6.913257432134178 0.0
vertex -1.0724837007180432 -1.0724837007180432 25.0
vertex -0.7583604974897725 -1.3135189121054969 25.0
endloop
endfacet
facet normal -5.671105908896007e-16 -0.9681421816722678 -0.2504011103546901
outer loop
vertex -2.476249558743593e-15 1.5167209949795397 25.0
vertex -2.0660856821450038 7.710736738555745 0.0
vertex 1.8506030041720577e-15 7.982742078839695 0.0
endloop
endfacet
facet normal 0.25057363498388674 -0.9351535367970867 -0.25040111035469
outer loop
vertex -2.0660856821450038 7.710736738555745 0.0
vertex -2.476249558743593e-15 1.5167209949795397 25.0
vertex -0.3925562796075536 1.4650399803255896 25.0
endloop
endfacet
facet normal -0.9188981040717402 -0.24621800491251153 0.30822551547570415
outer loop
vertex -1.8352590699492333 -0.49175618569479196 25.0
vertex -10.0 6.123233995736766e-16 0.0
vertex -9.659258262890683 -2.588190451025206 0.0
endloop
endfacet
facet normal -0.9513133193694578 6.853501942886193e-16 0.3082255154757042
outer loop
vertex -10.0 6.123233995736766e-16 0.0
vertex -1.8352590699492333 -0.49175618569479196 25.0
vertex -1.9000000000000028 -2.7115226836172852e-15 25.0
endloop
endfacet
facet normal -0.25057363498388774 -0.9351535367970865 -0.2504011103546901
outer loop
vertex 0.3925562796075484 1.4650399803255896 25.0
vertex 1.8506030041720577e-15 7.982742078839695 0.0
vertex 2.066085682145006 7.710736738555745 0.0
endloop
endfacet
facet normal -5.912164485813238e-16 -0.9681421816722678 -0.25040111035469004
outer loop
vertex 1.8506030041720577e-15 7.982742078839695 0.0
vertex 0.3925562796075484 1.4650399803255896 25.0
vertex -2.476249558743593e-15 1.5167209949795397 25.0
endloop
endfacet
facet normal 0.9188981040717402 0.2462180049125111 0.3082255154757044
outer loop
vertex 9.659258262890685 2.588190451025203 0.0
vertex 1.6454482671904325 0.9499999999999957 25.0
vertex 1.8352590699492268 0.4917561856947855 25.0
endloop
endfacet
facet normal 0.8238615015324502 0.47565665968472765 0.3082255154757046
outer loop
vertex 1.6454482671904325 0.9499999999999957 25.0
vertex 9.659258262890685 2.588190451025203 0.0
vertex 8.66025403784439 4.999999999999993 0.0
endloop
endfacet
facet normal 0.9681421816722678 1.4553020272771048e-16 -0.25040111035468987
outer loop
vertex -7.982742078839695 -4.4502596052709e-15 0.0
vertex -1.4650399803255942 -0.39255627960755335 25.0
vertex -7.710736738555747 -2.066085682145002 0.0
endloop
endfacet
facet normal 0.9351535367970867 0.2505736349838872 -0.25040111035468987
outer loop
vertex -1.4650399803255942 -0.39255627960755335 25.0
vertex -7.982742078839695 -4.4502596052709e-15 0.0
vertex -1.5167209949795442 -3.673413454537755e-15 25.0
endloop
endfacet
facet normal -2.96642462926868e-16 0.9681421816722677 -0.2504011103546898
outer loop
vertex -1.6139566827519915e-15 -1.5167209949795442 25.0
vertex 2.0660856821449953 -7.710736738555749 0.0
vertex 6.3889865620225805e-15 -7.982742078839695 0.0
endloop
endfacet
facet normal -0.2505736349838869 0.9351535367970867 -0.2504011103546899
outer loop
vertex 2.0660856821449953 -7.710736738555749 0.0
vertex -1.6139566827519915e-15 -1.5167209949795442 25.0
vertex 0.3925562796075466 -1.4650399803255942 25.0
endloop
endfacet
facet normal -0.2505736349838869 0.9351535367970867 -0.2504011103546899
outer loop
vertex 0.3925562796075466 -1.4650399803255942 25.0
vertex 3.9913710394198487 -6.913257432134175 0.0
vertex 2.0660856821449953 -7.710736738555749 0.0
endloop
endfacet
facet normal -0.4840710908361318 0.8384357238034744 -0.25040111035469004
outer loop
vertex 3.9913710394198487 -6.913257432134175 0.0
vertex 0.3925562796075466 -1.4650399803255942 25.0
vertex 0.7583604974897682 -1.3135189121054966 25.0
endloop
endfacet
facet normal -0.8384357238034716 0.48407109083613614 -0.2504011103546901
outer loop
vertex 1.3135189121054915 -0.7583604974897763 25.0
vertex 7.710736738555744 -2.066085682145015 0.0
vertex 6.91325743213417 -3.9913710394198594 0.0
endloop
endfacet
facet normal -0.9351535367970861 0.25057363498388857 -0.2504011103546901
outer loop
vertex 7.710736738555744 -2.066085682145015 0.0
vertex 1.3135189121054915 -0.7583604974897763 25.0
vertex 1.4650399803255887 -0.3925562796075557 25.0
endloop
endfacet
facet normal 0.8238615015324502 0.47565665968472765 0.30822551547570465
outer loop
vertex 8.66025403784439 4.999999999999993 0.0
vertex 1.3435028842544385 1.3435028842544379 25.0
vertex 1.6454482671904325 0.9499999999999957 25.0
endloop
endfacet
facet normal 0.6726800991592271 0.6726800991592277 0.30822551547570454
outer loop
vertex 1.3435028842544385 1.3435028842544379 25.0
vertex 8.66025403784439 4.999999999999993 0.0
vertex 7.071067811865477 7.071067811865473 0.0
endloop
endfacet
facet normal -0.9351535367970867 -0.2505736349838871 -0.25040111035469015
outer loop
vertex 1.46503998032559 0.39255627960754713 25.0
vertex 7.982742078839695 -1.1015494072452725e-15 0.0
vertex 1.5167209949795397 -3.037158516912884e-15 25.0
endloop
endfacet
facet normal -0.9681421816722678 6.275989992632514e-16 -0.25040111035469015
outer loop
vertex 7.982742078839695 -1.1015494072452725e-15 0.0
vertex 1.46503998032559 0.39255627960754713 25.0
vertex 7.710736738555747 2.066085682144999 0.0
endloop
endfacet
facet normal 2.604445100214609e-17 -0.9513133193694578 0.30822551547570426
outer loop
vertex -3.0605470213742795e-15 -1.9000000000000028 25.0
vertex -2.58819045102521 -9.659258262890683 0.0
vertex -1.2246467991473533e-15 -10.0 0.0
endloop
endfacet
facet normal -0.24621800491251297 -0.9188981040717398 0.30822551547570426
outer loop
vertex -2.58819045102521 -9.659258262890683 0.0
vertex -3.0605470213742795e-15 -1.9000000000000028 25.0
vertex -0.49175618569479257 -1.8352590699492333 25.0
endloop
endfacet
facet normal -0.9188981040717397 0.24621800491251342 0.30822551547570426
outer loop
vertex -1.8352590699492333 0.49175618569478685 25.0
vertex -10.0 6.123233995736766e-16 0.0
vertex -1.9000000000000028 -2.7115226836172852e-15 25.0
endloop
endfacet
facet normal -0.9513133193694578 6.853501942886193e-16 0.3082255154757042
outer loop
vertex -10.0 6.123233995736766e-16 0.0
vertex -1.8352590699492333 0.49175618569478685 25.0
vertex -9.659258262890683 2.5881904510252096 0.0
endloop
endfacet
facet normal 0.8384357238034736 0.48407109083613303 -0.25040111035469
outer loop
vertex -6.91325743213418 -3.9913710394198407 0.0
vertex -1.0724837007180432 -1.0724837007180432 25.0
vertex -5.644651056410746 -5.644651056410745 0.0
endloop
endfacet
facet normal 0.6845799018131985 0.6845799018131994 -0.25040111035468987
outer loop
vertex -1.0724837007180432 -1.0724837007180432 25.0
vertex -6.91325743213418 -3.9913710394198407 0.0
vertex -1.3135189121054969 -0.7583604974897725 25.0
endloop
endfacet
facet normal 0.9351535367970867 0.25057363498388713 -0.25040111035468987
outer loop
vertex -7.710736738555747 -2.066085682145002 0.0
vertex -1.3135189121054969 -0.7583604974897725 25.0
vertex -6.91325743213418 -3.9913710394198407 0.0
endloop
endfacet
facet normal 0.8384357238034736 0.4840710908361331 -0.25040111035469
outer loop
vertex -1.3135189121054969 -0.7583604974897725 25.0
vertex -7.710736738555747 -2.066085682145002 0.0
vertex -1.4650399803255942 -0.39255627960755335 25.0
endloop
endfacet
endsolid コーン
